<?xml version="1.0" encoding="UTF-8" standalone="no"?>
<!-- Generator: Adobe Illustrator 12.0.1, SVG Export Plug-In . SVG Version: 6.00 Build 51448)  -->

<svg
   xmlns:dc="http://purl.org/dc/elements/1.1/"
   xmlns:cc="http://creativecommons.org/ns#"
   xmlns:rdf="http://www.w3.org/1999/02/22-rdf-syntax-ns#"
   xmlns:svg="http://www.w3.org/2000/svg"
   xmlns="http://www.w3.org/2000/svg"
   xmlns:sodipodi="http://sodipodi.sourceforge.net/DTD/sodipodi-0.dtd"
   xmlns:inkscape="http://www.inkscape.org/namespaces/inkscape"
   version="1.1"
   id="Layer_1"
   width="200"
   height="100"
   viewBox="0 0 200 100"
   overflow="visible"
   enable-background="new 0 0 548.476 308.597"
   xml:space="preserve"
   inkscape:version="0.91 r13725"
   sodipodi:docname="birdp.svg"
   style="overflow:visible"><metadata
     id="metadata3977"><rdf:RDF><cc:Work
         rdf:about=""><dc:format>image/svg+xml</dc:format><dc:type
           rdf:resource="http://purl.org/dc/dcmitype/StillImage" /><dc:title></dc:title></cc:Work></rdf:RDF></metadata><defs
     id="defs3975" /><sodipodi:namedview
     pagecolor="#ffffff"
     bordercolor="#666666"
     borderopacity="1"
     objecttolerance="10"
     gridtolerance="10"
     guidetolerance="10"
     inkscape:pageopacity="0"
     inkscape:pageshadow="2"
     inkscape:window-width="1600"
     inkscape:window-height="847"
     id="namedview3973"
     showgrid="false"
     inkscape:zoom="4"
     inkscape:cx="169.14076"
     inkscape:cy="58.570012"
     inkscape:window-x="-8"
     inkscape:window-y="-8"
     inkscape:window-maximized="1"
     inkscape:current-layer="Layer_1" /><path
     style="clip-rule:evenodd;fill-rule:evenodd"
     inkscape:connector-curvature="0"
     id="path3899"
     d="m 166.7121,16.052215 c 0,0.49888 0,0.99744 0,1.49633 -1.55855,0.0788 -1.88017,-1.75494 0,-1.49633 z" /><path
     style="clip-rule:evenodd;fill-rule:evenodd"
     inkscape:connector-curvature="0"
     id="path3901"
     d="m 178.14268,20.915015 c -0.56264,0.55554 -0.4123,1.67105 -1.90556,1.49631 -0.22087,-1.17154 0.41472,-1.6701 1.90556,-1.49631 z" /><path
     style="clip-rule:evenodd;fill-rule:evenodd"
     inkscape:connector-curvature="0"
     id="path3909"
     d="m 171.9512,34.380905 c 0.769,-0.10541 0.81938,0.35359 1.42878,0.37416 -1.23774,1.36558 0.95076,1.6796 0,2.61848 -1.34938,-0.85689 -2.02245,-1.41402 -1.42878,-2.99264 z" /><path
     style="clip-rule:evenodd;fill-rule:evenodd"
     inkscape:connector-curvature="0"
     id="path3911"
     d="m 173.37998,37.747375 c 0.13461,0.60397 -0.4502,0.64386 -0.47639,1.12185 0.34902,0.34915 0.86572,0.56661 1.42876,0.748 -1.01968,1.01674 -2.84142,-0.48654 -2.85794,-1.49632 0.4244,-0.28996 1.07571,-0.40169 1.90557,-0.37353 z" /><path
     style="clip-rule:evenodd;fill-rule:evenodd"
     inkscape:connector-curvature="0"
     id="path3913"
     d="m 171.47441,39.991695 c 0.31759,0 0.63519,0 0.95278,0 0,0.49856 0,0.99744 0,1.49632 -0.31759,0 -0.63519,0 -0.95278,0 0,-0.49888 0,-0.99776 0,-1.49632 z" /><path
     style="clip-rule:evenodd;fill-rule:evenodd"
     inkscape:connector-curvature="0"
     id="path3915"
     d="m 174.80834,41.861855 c -0.19466,0.9012 0.86976,0.8132 0.4768,1.87047 -1.4328,0.37701 -0.84396,-0.83347 -0.95238,-1.49631 -1.34292,0.0675 -0.59448,1.77772 -2.38115,1.49631 0.12091,-1.27663 1.01807,-1.94327 2.85673,-1.87047 z" /><path
     style="clip-rule:evenodd;fill-rule:evenodd"
     inkscape:connector-curvature="0"
     id="path3917"
     d="m 171.9512,48.220645 c 0.55579,0.56092 1.37517,0.91482 1.42878,1.87048 -1.48722,0.17125 -1.52228,-0.79929 -1.42878,-1.87048 z" /><path
     style="clip-rule:evenodd;fill-rule:evenodd"
     inkscape:connector-curvature="0"
     id="path3919"
     d="m 171.47441,51.587115 c 2.18286,0.24976 -0.38249,2.26458 0,0 l 0,0 z" /><path
     style="clip-rule:evenodd;fill-rule:evenodd"
     inkscape:connector-curvature="0"
     id="path3921"
     d="m 169.09366,54.205595 c 1.15874,0.23456 0.2523,1.89009 -0.95238,1.49663 -0.34702,-1.02118 0.94593,-0.75307 0.95238,-1.49663 z" /><path
     style="clip-rule:evenodd;fill-rule:evenodd"
     inkscape:connector-curvature="0"
     id="path3923"
     d="m 169.56965,56.076065 c 0.769,-0.10572 0.82058,0.35327 1.42917,0.37352 -0.0915,0.30326 -0.478,0.37322 -0.47679,0.74832 -0.31679,0 -0.63479,0 -0.95238,0 0,-0.37384 0,-0.74769 0,-1.12184 z" /><path
     style="clip-rule:evenodd;fill-rule:evenodd"
     inkscape:connector-curvature="0"
     id="path3925"
     d="m 167.1889,57.572065 c 1.59603,1.03795 -1.2333,1.74987 -1.42918,2.61847 -1.32075,-0.82112 1.50858,-1.53303 1.42918,-2.61847 z" /><path
     style="clip-rule:evenodd;fill-rule:evenodd"
     inkscape:connector-curvature="0"
     id="path3927"
     d="m 163.37857,60.190535 c 0.83751,0.0899 1.08538,0.64323 0.95238,1.49632 -0.99551,0.15827 -1.26111,-0.2564 -1.90516,-0.37415 0.16806,-0.49129 0.83832,-0.58815 0.95278,-1.12217 z" /><path
     style="clip-rule:evenodd;fill-rule:evenodd"
     inkscape:connector-curvature="0"
     id="path3929"
     d="m 162.42579,63.182855 c -0.0721,0.93033 -1.61256,0.10952 -1.90517,0 0.32445,-1.16869 1.45054,-0.62897 1.90517,0 z" /><path
     style="clip-rule:evenodd;fill-rule:evenodd"
     inkscape:connector-curvature="0"
     id="path3931"
     d="m 160.04463,63.931175 c 0.54572,1.17629 -0.74723,0.90881 -0.95238,1.49631 -1.01001,-0.11807 -0.10317,-1.7733 0.95238,-1.49631 z" /><path
     style="clip-rule:evenodd;fill-rule:evenodd"
     inkscape:connector-curvature="0"
     id="path3933"
     d="m 110.51359,65.427175 c 1.21194,0.0459 1.84713,0.54477 1.90517,1.49663 -0.79359,0 -1.58757,0 -2.38116,0 -0.0605,-0.67139 0.5832,-0.78947 0.47599,-1.49663 z" /><path
     style="clip-rule:evenodd;fill-rule:evenodd"
     inkscape:connector-curvature="0"
     id="path3935"
     d="m 113.37154,66.175485 c 0.31719,0 0.63478,0 0.95238,0 0,0.24944 0,0.49856 0,0.74832 -0.318,0 -0.63519,0 -0.95238,0 0,-0.24976 0,-0.49888 0,-0.74832 z" /><path
     style="clip-rule:evenodd;fill-rule:evenodd"
     inkscape:connector-curvature="0"
     id="path3937"
     d="m 121.94377,66.923805 c 0.31759,0 0.63559,0 0.95279,0 0.22287,0.79801 -0.68033,0.71223 -1.42878,0.74799 0.0903,-0.30324 0.478,-0.37352 0.47599,-0.74799 z" /><path
     style="clip-rule:evenodd;fill-rule:evenodd"
     inkscape:connector-curvature="0"
     id="path3939"
     d="m 135.27911,66.923805 c 0.3176,0 0.6356,0 0.95238,0 0.22248,0.79801 -0.67992,0.71223 -1.42837,0.74799 0.0903,-0.30324 0.47801,-0.37352 0.47599,-0.74799 z" /><path
     style="clip-rule:evenodd;fill-rule:evenodd"
     inkscape:connector-curvature="0"
     id="path3941"
     d="m 109.08522,67.671795 c 0.65816,-1.08258 1.68511,0.62804 1.42837,1.49601 -1.31471,0.16017 -0.44657,-1.39471 -1.42837,-1.49601 z" /><path
     style="clip-rule:evenodd;fill-rule:evenodd"
     inkscape:connector-curvature="0"
     id="path3943"
     d="m 120.99139,67.671795 c 0.0746,1.04778 -1.34615,1.21998 -1.90516,0.748 0.11446,-0.65841 0.81937,-0.85277 1.90516,-0.748 z" /><path
     style="clip-rule:evenodd;fill-rule:evenodd"
     inkscape:connector-curvature="0"
     id="path3945"
     d="m 133.37435,67.671795 c 1.21194,0.0456 1.84672,0.54447 1.90476,1.49601 -0.55821,-0.5587 -1.97892,-0.44095 -1.90476,-1.49601 z" /><path
     style="clip-rule:evenodd;fill-rule:evenodd"
     inkscape:connector-curvature="0"
     id="path3947"
     d="m 148.13806,69.167805 c -1.77699,-0.81257 -2.33681,-0.35738 -4.28631,-0.74769 1.25143,-0.78661 4.36128,-1.23674 4.28631,0.74769 z" /><path
     style="clip-rule:evenodd;fill-rule:evenodd"
     inkscape:connector-curvature="0"
     id="path3949"
     d="m 130.04042,68.419795 c 0.0725,1.08925 -1.93096,1.13641 -2.38116,0.74769 0.0697,-0.81733 1.19985,-0.80244 2.38116,-0.74769 z" /><path
     style="clip-rule:evenodd;fill-rule:evenodd"
     inkscape:connector-curvature="0"
     id="path3951"
     d="m 132.42197,68.419795 c 1.15834,0.23457 0.2519,1.88979 -0.95238,1.49601 -0.54612,-1.17661 0.74764,-0.90881 0.95238,-1.49601 z" /><path
     style="clip-rule:evenodd;fill-rule:evenodd"
     inkscape:connector-curvature="0"
     id="path3953"
     d="m 120.5154,69.167805 c -2.52343,1.14558 -4.57489,-0.46596 0,0 l 0,0 z" /><path
     style="clip-rule:evenodd;fill-rule:evenodd"
     inkscape:connector-curvature="0"
     id="path3955"
     d="m 117.18146,76.648755 c 0.34621,1.02085 -0.94673,0.75306 -0.95237,1.49631 -1.15915,-0.23456 -0.25231,-1.8901 0.95237,-1.49631 z" /><path
     style="clip-rule:evenodd;fill-rule:evenodd"
     inkscape:connector-curvature="0"
     id="path3957"
     d="m 147.66207,86.748485 c 1.38847,-0.55016 1.38847,1.67169 0,1.12216 0,-0.37416 0,-0.74831 0,-1.12216 z" /><path
     style="clip-rule:evenodd;fill:#220055;fill-rule:evenodd;stroke:#d40000;stroke-width:0.3571842"
     d="M 190.12109 5.5351562 C 185.97071 5.5121563 182.12441 7.5082725 179.57227 8.9453125 C 167.57864 7.6981225 158.11548 9.8226276 152.42578 14.554688 C 151.28921 16.543868 148.24917 19.299183 146.23438 23.158203 C 144.3949 26.681683 142.96241 30.425259 139.56641 31.761719 C 138.48737 32.185999 135.2835 32.552992 132.22852 32.638672 C 132.30712 32.640672 132.36133 32.661109 132.36133 32.724609 C 132.36133 32.923489 131.60156 32.923489 131.60156 32.724609 L 127.04492 32.724609 L 124.01172 32.724609 C 124.1426 32.882729 124.25166 33.056992 124.32812 33.257812 C 113.25302 34.658543 102.52018 36.328944 94.800781 40.365234 C 90.167041 39.224394 84.518371 40.516255 82.894531 42.984375 C 78.943541 42.624465 78.022103 44.644222 76.226562 45.976562 C 73.005472 45.690722 71.969509 47.121333 70.511719 48.220703 C 67.044376 48.240303 65.883932 50.072371 63.84375 51.212891 C 60.872954 50.639311 59.863417 53.131518 57.652344 51.960938 C 56.243322 52.474998 55.874893 53.806548 54.318359 54.205078 C 39.29064 54.378548 27.391168 48.639324 13.359375 50.464844 C 12.428759 52.227374 10.450705 53.167905 10.503906 55.703125 C 8.3057332 55.597405 7.9353547 56.927292 7.1679688 57.945312 C 8.0046777 58.285592 8.0402542 59.256436 8.5976562 59.816406 C 7.0173413 60.320676 4.5376284 60.119167 4.7871094 62.060547 C 4.9878224 63.274187 6.7665427 63.248377 7.1679688 64.304688 C 3.9420467 64.638958 4.9140664 68.270862 4.7871094 71.039062 C 5.6830644 71.706033 6.9916092 72.049413 7.6445312 72.908203 C 7.6941013 74.068663 6.1456923 73.976584 6.6914062 75.527344 C 7.3141023 76.285474 9.2146472 76.040887 9.5507812 77.023438 C 9.1429062 78.216508 10.300775 78.179078 10.503906 78.892578 C 12.597289 78.782098 14.581033 79.976055 16.693359 80.015625 C 22.217005 80.117865 25.465689 77.410631 30.029297 75.900391 C 37.571762 73.404101 48.818201 70.513562 56.699219 68.419922 C 63.051113 66.731782 73.673941 68.770452 80.988281 68.044922 C 82.624221 67.882222 84.04716 66.986178 85.75 66.923828 C 93.31705 66.644308 102.06632 70.821602 109.56445 71.039062 C 109.55645 72.155213 108.32541 72.310443 108.13477 73.283203 C 108.59625 74.291713 109.77945 74.733601 110.04102 75.900391 C 108.64046 77.684441 112.3061 78.277155 110.04102 80.015625 C 111.31825 80.632895 112.14741 81.601356 113.37305 82.259766 C 120.73012 82.510786 127.94843 85.990331 134.32812 88.244141 C 134.22172 88.951621 134.86669 89.069144 134.80664 89.740234 C 133.45443 91.268954 130.9075 92.759938 130.65625 94.773438 L 131.60156 94.773438 C 131.60156 94.492198 132.04103 94.303524 132.36133 94.177734 C 132.58781 94.088834 132.89461 94.266634 133.12109 94.177734 C 133.44139 94.051964 133.56056 93.705858 133.88086 93.580078 C 134.28123 93.265628 134.86324 93.125005 135.40039 92.984375 C 135.61445 92.928375 136.13588 92.924847 136.68945 92.935547 C 136.67505 92.898547 136.66665 92.862691 136.68945 92.837891 C 136.73386 92.853109 136.92849 92.878545 136.96289 92.837891 C 136.86891 92.835835 136.84407 92.830274 136.69727 92.830078 C 136.69599 92.830988 136.69259 92.831102 136.69141 92.832031 C 136.69141 92.832031 136.69141 92.830078 136.69141 92.830078 C 136.69477 92.830078 136.69403 92.830074 136.69727 92.830078 C 136.76839 92.779395 136.97656 92.758747 136.97656 92.832031 C 136.97656 92.834031 136.97443 92.83453 136.97266 92.835938 C 136.97185 92.837703 136.96421 92.836336 136.96289 92.837891 C 136.96565 92.837951 136.96781 92.837835 136.9707 92.837891 C 137.07367 92.839891 137.19132 92.842703 137.24805 92.845703 C 137.24805 92.845703 137.25 92.84375 137.25 92.84375 C 137.25077 92.841518 137.25263 92.838546 137.26172 92.832031 C 137.26272 92.831071 137.26462 92.829125 137.26562 92.828125 C 137.17063 92.794925 137.10346 92.731832 137.26172 92.607422 C 137.32302 92.559322 137.5066 92.538697 137.53906 92.591797 C 137.44802 92.670354 137.36046 92.753246 137.26562 92.828125 C 137.27103 92.829925 137.27444 92.833976 137.2793 92.835938 C 137.27037 92.840086 137.26267 92.843903 137.25781 92.845703 C 137.27181 92.846653 137.31663 92.846606 137.32812 92.847656 C 137.31162 92.844656 137.29755 92.840637 137.28125 92.835938 C 137.35755 92.800637 137.54688 92.682742 137.54688 92.607422 C 137.54688 92.600422 137.54402 92.596897 137.54102 92.591797 C 137.54102 92.591797 137.54102 92.589844 137.54102 92.589844 C 137.6294 92.513779 137.72354 92.441571 137.83203 92.384766 C 137.91103 92.343366 138.04806 92.437466 138.11523 92.384766 C 138.18243 92.332066 138.04803 92.212906 138.11523 92.160156 C 138.24958 92.054636 138.5512 92.265666 138.68555 92.160156 C 138.75275 92.107456 138.61835 91.99026 138.68555 91.9375 C 139.08958 91.62017 138.85183 92.25483 139.25586 91.9375 C 139.32306 91.8848 139.18866 91.765641 139.25586 91.712891 C 139.3902 91.607371 139.69183 91.818401 139.82617 91.712891 C 139.89337 91.660191 139.75897 91.542984 139.82617 91.490234 C 139.96867 91.378304 140.53915 91.602144 140.68164 91.490234 C 140.81599 91.384704 140.5473 91.146536 140.68164 91.041016 C 140.14803 91.041016 141.32934 90.624583 141.08789 90.921875 C 141.08789 90.921875 141.08789 90.923828 141.08789 90.923828 C 141.14669 90.891328 141.20334 90.856479 141.25195 90.818359 C 141.31915 90.765659 141.18475 90.64651 141.25195 90.59375 C 141.31915 90.54105 141.44211 90.59375 141.53711 90.59375 C 141.63211 90.59375 141.82227 90.51915 141.82227 90.59375 L 142.10547 90.59375 C 142.10547 90.59375 142.10742 90.59375 142.10742 90.59375 C 142.19506 90.593035 142.35256 90.538671 142.37891 90.585938 C 142.38231 90.585861 142.38506 90.586007 142.38867 90.585938 C 142.38867 90.585938 142.38867 90.587891 142.38867 90.587891 C 142.51886 90.584891 142.68237 90.583125 142.74023 90.578125 C 142.6182 90.602025 142.4818 90.664036 142.67578 90.816406 C 142.74298 90.869106 142.89377 90.763706 142.96094 90.816406 C 143.02814 90.869106 142.89374 90.988266 142.96094 91.041016 C 143.02814 91.093716 143.17892 90.988316 143.24609 91.041016 C 143.31329 91.093716 143.24609 91.191015 143.24609 91.265625 C 143.15403 91.270175 143.15403 91.488281 143.24805 91.488281 C 143.34243 91.488281 143.24927 91.340707 143.24805 91.265625 C 143.83633 91.266712 143.36123 91.579353 143.53125 91.712891 C 143.39691 91.712891 143.68206 91.935547 143.81641 91.935547 C 143.86721 91.935547 143.8818 91.887624 143.875 91.833984 C 143.788 91.785484 143.6997 91.742209 143.60352 91.724609 C 143.67622 91.716609 143.76787 91.674691 143.81641 91.712891 C 143.84761 91.737391 143.8691 91.787414 143.875 91.833984 C 143.9478 91.874584 144.0207 91.914407 144.10156 91.935547 C 144.19166 91.959147 144.31955 91.882847 144.38672 91.935547 C 144.45392 91.988247 144.38672 92.085536 144.38672 92.160156 C 144.38672 92.757036 144.29192 92.086266 144.67188 92.384766 C 144.73908 92.437466 144.60467 92.554662 144.67188 92.607422 C 144.73908 92.660122 144.88986 92.554722 144.95703 92.607422 C 145.06657 92.693422 144.90932 92.866145 144.91992 92.984375 L 146.03516 92.984375 C 146.21939 92.984375 148.28806 92.965175 148.3125 92.984375 C 148.49155 93.125005 148.13344 93.439448 148.3125 93.580078 C 148.69232 93.878388 150.21197 93.281758 150.5918 93.580078 C 150.9499 93.861318 150.2337 94.492187 150.5918 94.773438 C 150.6173 94.793338 150.64854 94.803194 150.68164 94.808594 C 151.40845 93.856964 152.15738 92.923178 152.42578 91.611328 C 152.15212 90.828828 151.2465 90.543797 151.47461 89.367188 C 151.48851 89.327088 151.49792 89.293746 151.51172 89.253906 C 151.51072 89.252956 151.51147 89.251 151.50977 89.25 C 151.17704 88.98868 151.27414 89.51132 150.94141 89.25 C 150.87421 89.1973 151.00861 89.080104 150.94141 89.027344 C 150.87421 88.974644 150.74122 89.060744 150.65625 89.027344 C 150.53609 88.980144 150.49125 88.849924 150.37109 88.802734 C 150.23364 88.748734 150.0332 88.848584 149.89062 88.833984 C 148.16375 89.206924 146.50478 87.730997 145.2793 87.123047 C 145.3078 87.023017 145.33974 86.936334 145.36914 86.839844 C 145.32344 86.821444 145.29824 86.809809 145.24023 86.787109 C 145.07029 86.720309 144.80427 86.892619 144.66992 86.787109 C 144.60272 86.734409 144.73712 86.617203 144.66992 86.564453 C 144.60272 86.511753 144.46974 86.597853 144.38477 86.564453 C 144.26461 86.517253 144.22172 86.387034 144.10156 86.339844 C 144.01656 86.306444 143.90138 86.373244 143.81641 86.339844 C 143.69625 86.292644 143.65142 86.164367 143.53125 86.117188 C 143.44625 86.083787 143.31326 86.169888 143.24609 86.117188 C 143.17889 86.064487 143.31329 85.945338 143.24609 85.892578 C 143.11174 85.787058 142.81013 85.998088 142.67578 85.892578 C 142.60858 85.839878 142.74298 85.722672 142.67578 85.669922 C 142.60718 85.616122 141.60374 85.723722 141.53516 85.669922 C 141.46796 85.617222 141.60236 85.498073 141.53516 85.445312 C 141.46796 85.392612 141.34694 85.445313 141.25195 85.445312 L 139.82617 85.445312 C 139.73117 85.445312 139.60819 85.498013 139.54102 85.445312 C 139.47382 85.392612 139.60822 85.273463 139.54102 85.220703 C 139.47382 85.168003 139.32303 85.273403 139.25586 85.220703 C 139.18866 85.168003 139.32306 85.050807 139.25586 84.998047 C 138.92313 84.736717 139.01828 85.259357 138.68555 84.998047 C 138.61835 84.945347 138.75275 84.826197 138.68555 84.773438 C 138.61835 84.720737 138.46756 84.826137 138.40039 84.773438 C 138.33319 84.720737 138.46759 84.603541 138.40039 84.550781 C 138.33319 84.498081 138.1824 84.603481 138.11523 84.550781 C 138.04803 84.498081 138.18243 84.378922 138.11523 84.326172 C 137.92556 84.177202 137.73459 84.475132 137.54492 84.326172 C 137.47772 84.273472 137.61212 84.154323 137.54492 84.101562 C 137.46692 84.040363 136.56085 84.162262 136.40625 84.101562 C 136.28608 84.054362 136.24125 83.926086 136.12109 83.878906 C 136.07519 83.860806 135.92945 83.8665 135.77539 83.875 C 136.13531 84.97287 136.17388 85.95594 134.80078 86.75 C 131.44346 87.20107 134.90194 85.851383 134.80078 85.626953 C 134.29819 84.512713 130.41919 83.437856 128.13477 82.634766 C 124.46107 81.343896 120.35211 80.238281 118.60938 78.894531 C 120.05709 76.283981 123.04062 75.680658 126.49219 75.705078 C 129.94377 75.729578 133.86396 76.380651 137.18359 76.275391 C 137.56103 78.181461 136.51938 78.974685 135.5957 79.859375 L 136.1582 79.859375 C 136.32624 79.859375 136.50569 79.894131 136.67383 79.894531 C 136.67303 79.877231 136.67611 79.861709 136.69141 79.849609 C 136.82339 79.745949 136.9987 79.656126 137.18359 79.634766 C 137.32496 79.460416 137.44391 79.261719 137.67773 79.261719 C 137.67773 79.261719 137.67969 79.261719 137.67969 79.261719 C 137.78057 79.184259 137.94784 79.233868 138.10938 79.271484 C 138.09588 79.235184 138.08789 79.200334 138.11719 79.177734 C 138.18439 79.125034 138.31541 79.211134 138.40039 79.177734 C 138.45749 79.155234 138.49783 79.114286 138.53711 79.072266 C 138.54211 79.007366 138.52971 78.936841 138.50781 78.863281 C 138.39179 78.879481 138.27039 78.892131 138.13672 78.894531 C 138.21462 77.973861 138.78955 77.443375 139.97266 77.390625 C 140.10601 77.384625 140.25335 77.389854 140.40234 77.396484 C 140.52148 77.394495 140.64416 77.401884 140.76758 77.414062 C 140.73818 77.427682 140.7168 77.444937 140.7168 77.470703 C 140.7168 77.667978 141.21359 77.47383 141.46875 77.470703 C 141.24433 77.469951 141.01044 77.435149 140.7793 77.412109 C 140.77697 77.413027 140.77173 77.413088 140.76953 77.414062 C 140.76953 77.414062 140.76953 77.412109 140.76953 77.412109 C 140.77278 77.412429 140.77605 77.411785 140.7793 77.412109 C 140.98451 77.330991 141.64614 77.465288 141.46875 77.470703 C 141.46978 77.47069 141.47163 77.470709 141.47266 77.470703 C 141.47058 77.470735 141.47885 77.472656 141.47656 77.472656 L 142.23633 77.472656 C 142.42056 77.472656 144.49119 77.453556 144.51562 77.472656 C 144.56203 77.509156 144.57155 77.557518 144.56445 77.611328 L 144.67188 77.611328 C 144.67188 77.536628 145.05203 77.611328 144.95703 77.611328 L 145.24023 77.611328 L 145.52539 77.611328 C 145.52539 77.536628 145.90555 77.611328 145.81055 77.611328 L 145.52539 77.611328 C 145.52539 77.760548 145.96135 77.505808 146.0957 77.611328 C 146.1629 77.664028 146.0285 77.783187 146.0957 77.835938 C 146.1604 77.886737 146.37255 77.859144 146.5918 77.839844 C 146.4605 77.701904 146.33769 77.556858 146.23242 77.398438 C 148.62424 77.659908 149.94149 78.767886 150.44922 80.509766 C 150.56349 80.495029 150.65545 80.522995 150.65625 80.744141 C 150.65625 80.744141 150.65625 80.746094 150.65625 80.746094 C 150.72345 80.798794 150.58905 80.91599 150.65625 80.96875 C 150.67755 80.98545 150.70132 80.994647 150.72852 80.998047 C 150.75392 80.994047 150.78305 80.996094 150.81055 80.996094 C 150.95819 80.975894 151.13164 80.893489 151.19727 81.037109 C 151.25007 81.044109 151.30271 81.052734 151.35156 81.052734 L 152.11133 81.052734 C 152.26143 81.052734 153.46267 81.045781 153.99023 81.050781 C 154.27223 79.902001 154.53908 78.718397 154.80859 77.398438 C 151.90752 76.309838 152.82727 72.221536 150.52148 70.666016 C 151.18005 71.533036 152.52378 74.525317 150.52148 75.154297 C 149.17049 74.344887 146.63223 74.467623 145.28125 73.658203 C 145.25545 73.014353 145.64876 72.698176 146.23438 72.535156 C 148.17944 73.396796 148.93755 72.88567 150.52148 74.03125 C 151.61734 72.89707 148.21133 72.800003 148.61719 71.039062 C 152.60203 68.666862 165.36991 67.16714 166.71484 62.0625 C 167.32142 62.57183 169.04734 62.63936 169.0957 61.6875 C 166.5888 60.11396 164.71354 63.449277 162.9043 64.679688 C 160.44496 65.241888 159.32095 66.853448 156.71289 67.298828 C 156.35822 66.147228 158.01914 66.579004 157.66406 65.427734 C 155.86369 65.969344 156.75066 64.400178 155.2832 64.679688 C 154.69476 65.890488 156.82436 64.965301 156.23633 66.175781 C 154.18647 67.269131 152.69001 66.517745 150.99805 67.671875 C 150.1678 67.778555 148.44147 66.477755 148.61719 68.046875 C 149.096 68.957585 150.723 67.314952 150.52148 69.169922 C 148.14194 69.452592 145.31194 70.415899 143.37695 69.917969 C 143.6228 68.966419 144.18793 68.465502 142.42383 68.419922 C 143.11021 69.555052 141.94583 69.891892 141.47266 71.039062 C 140.34254 70.274603 142.12661 69.558752 140.99609 68.794922 C 139.10423 68.430582 140.79872 70.885706 139.08984 70.666016 C 138.29706 69.922456 139.13334 70.188829 139.08984 69.167969 C 137.49299 70.445239 135.24406 71.145476 132.90039 69.916016 C 133.44126 71.361356 135.62561 71.514926 136.70898 72.535156 C 136.16972 74.007096 138.14565 75.133874 136.23242 75.527344 C 135.58877 75.409904 135.32363 74.994064 134.32812 75.152344 C 134.46274 74.713294 136.42634 73.59801 134.32812 73.65625 C 132.45399 73.05703 134.16156 75.271364 132.89844 75.152344 C 132.20602 74.947534 130.43738 75.590297 130.51758 74.779297 C 130.72232 74.192107 132.01561 74.459493 131.4707 73.283203 C 129.54378 74.482593 126.09592 75.463677 124.32617 74.779297 C 125.28097 72.287127 129.79803 72.592189 132.42383 71.412109 C 126.87197 71.390909 125.86026 69.116829 121.46875 71.412109 C 120.22497 69.894899 114.89509 71.587339 114.80078 69.167969 C 116.1961 69.141669 117.48708 69.032395 117.18359 67.671875 C 114.72667 67.968485 115.00391 68.622452 113.84961 70.289062 C 112.03835 69.193822 109.80906 70.304206 107.18164 69.541016 C 107.18764 68.797766 108.47942 69.067415 108.13281 68.046875 C 106.94102 66.738275 103.62766 67.096941 101.94336 66.175781 C 104.20279 66.021631 106.0749 66.172118 107.18164 66.923828 C 108.60275 66.168868 109.53002 65.028007 110.99023 64.304688 C 113.85342 64.860227 117.56354 64.386988 120.99219 64.304688 C 125.41232 64.198648 129.54429 64.957454 133.85156 65.052734 C 139.04834 65.167644 143.57385 63.859734 148.13867 63.183594 C 151.82284 62.637554 155.54408 63.310073 157.66406 60.939453 C 155.60171 60.221533 154.71401 62.32229 153.85352 61.3125 C 154.83694 60.33912 156.59077 59.971526 158.61523 59.816406 C 158.58943 60.294716 158.00638 60.335173 158.14062 60.939453 C 170.37124 56.775293 170.69727 44.370759 167.66602 34.380859 C 169.85009 33.602159 171.09861 32.089396 174.80859 32.509766 C 174.73729 34.077626 175.056 33.411496 175.76172 32.884766 C 176.4884 36.090116 175.51328 36.781511 175.28516 38.869141 C 175.90745 39.596241 177.80718 38.119918 178.14453 39.617188 C 178.33315 40.513328 175.97406 39.410414 176.71484 40.740234 C 179.28099 40.719634 178.00064 43.718376 179.0957 44.853516 C 177.19376 45.483756 177.95631 46.507543 178.14453 48.220703 C 176.08782 48.419173 175.47377 48.32785 174.33398 48.59375 C 173.57103 50.06569 176.38983 48.724427 176.23828 49.716797 C 176.52645 50.487897 175.47003 52.315148 177.19141 51.960938 C 178.83379 49.871727 178.2757 46.760286 179.57227 45.228516 C 180.58415 45.264616 181.56792 45.277506 182.50391 45.253906 C 182.50991 44.725576 182.51525 44.0756 182.49805 44.0625 C 182.319 43.92187 181.91733 44.20314 181.73828 44.0625 C 181.55923 43.92187 181.73828 43.663704 181.73828 43.464844 L 181.73828 42.732422 C 181.4858 42.706922 181.2378 42.669608 181 42.611328 C 178.67044 42.041548 179.25047 40.442424 179.0957 38.871094 C 178.97318 37.635924 177.40991 35.584679 177.18945 34.380859 C 176.811 32.309689 177.46593 29.847278 177.18945 27.273438 C 179.39891 25.185817 179.01728 22.113432 180.52344 19.419922 C 180.78864 18.945742 181.69565 18.784665 181.95117 18.296875 C 182.75242 16.768575 182.662 14.989314 183.85742 13.808594 C 186.12129 11.571554 190.34281 11.463286 191.47656 8.5722656 C 188.95555 10.993536 184.00086 11.615244 181.47461 13.808594 C 180.32031 14.810784 181.27372 16.598511 179.0957 16.800781 C 178.74062 17.952381 180.40115 17.520285 180.04688 18.671875 C 177.3304 19.115055 178.57175 20.441399 179.0957 22.037109 C 177.37553 22.938329 174.49319 24.897754 175.28516 26.527344 C 176.034 26.243084 175.99565 25.339717 177.18945 25.404297 C 177.18345 26.771767 176.24923 27.409338 175.28516 28.023438 C 175.62532 27.007638 173.03794 28.290881 173.37891 27.275391 C 173.03472 26.132351 173.86595 25.91221 173.85547 25.03125 C 172.47869 24.86601 171.68459 24.241796 171.47461 23.160156 C 174.1133 23.009796 173.26254 23.6623 174.80859 24.65625 C 176.31152 23.36601 173.75004 23.001016 174.33203 21.291016 C 176.16908 20.864006 177.59549 20.111635 177.66602 18.296875 C 176.16994 18.107905 175.72084 19.179248 175.28516 17.923828 C 176.61841 16.851368 178.99978 16.602528 180.04688 15.304688 C 178.62011 15.058727 180.5023 14.504994 180.04688 13.808594 C 176.30829 14.238784 176.40595 17.682455 172.90234 18.296875 C 174.58825 16.004765 176.8103 14.133757 179.57031 12.685547 C 179.91531 11.933757 180.99654 9.8495132 182.42773 11.189453 C 181.97793 12.332183 180.11056 12.362284 180.04688 13.808594 C 183.88702 11.961864 187.42788 9.8814588 191 7.8242188 C 191.19539 8.2944287 190.66261 8.5891056 191.47656 8.5722656 C 192.68931 7.5121456 194.71117 7.8674319 194.33594 6.3261719 C 192.92168 5.7745019 191.50455 5.5428263 190.12109 5.5351562 z M 150.65625 80.744141 C 150.62825 80.722141 150.57311 80.733394 150.51953 80.746094 C 150.58843 80.764094 150.65625 80.780041 150.65625 80.744141 z M 150.51953 80.746094 C 150.51753 80.745464 150.51567 80.744511 150.51367 80.744141 C 150.51387 80.745091 150.51327 80.747047 150.51367 80.748047 C 150.51567 80.747407 150.51753 80.746454 150.51953 80.746094 z M 144.95703 77.611328 L 144.67188 77.611328 C 144.67188 77.685928 144.86203 77.611328 144.95703 77.611328 z M 137.67969 79.261719 C 137.60519 79.320219 137.63959 79.432842 137.68359 79.544922 C 137.74449 79.401102 137.80219 79.261719 137.67969 79.261719 z M 137.68359 79.544922 C 137.67109 79.574422 137.6658 79.598353 137.6543 79.626953 C 137.6778 79.627273 137.69509 79.628536 137.71289 79.628906 C 137.70139 79.599906 137.69549 79.575322 137.68359 79.544922 z M 142.38867 90.587891 C 142.38806 90.585275 142.38011 90.58809 142.37891 90.585938 C 142.28411 90.58806 142.26366 90.59375 142.10742 90.59375 C 142.01242 90.59375 142.39258 90.66835 142.39258 90.59375 C 142.39258 90.59135 142.3897 90.589779 142.38867 90.587891 z M 141.82227 90.59375 L 141.53711 90.59375 C 141.44211 90.59375 141.82227 90.66835 141.82227 90.59375 z M 141.08789 90.921875 C 140.99029 90.975675 140.88231 91.014417 140.76953 91.029297 C 140.83943 91.040697 140.92161 91.076516 140.9668 91.041016 C 141.0322 90.989716 141.06088 90.954655 141.08789 90.921875 z M 133.88086 93.580078 C 133.70181 93.720708 134.64062 93.778948 134.64062 93.580078 C 134.64062 93.381198 134.10734 93.491178 133.88086 93.580078 z M 131.60156 94.773438 C 131.60156 94.972318 132.36133 94.972318 132.36133 94.773438 C 132.36133 94.574568 131.85478 94.773438 131.60156 94.773438 z M 131.60156 32.724609 C 131.74883 32.724609 131.97931 32.657925 132.14844 32.640625 C 131.96886 32.645625 131.79514 32.647391 131.61719 32.650391 C 131.61019 32.674891 131.60156 32.698709 131.60156 32.724609 z M 189.8125 6.5 C 190.38169 6.494 190.94666 6.5581719 191.47852 6.7011719 C 189.53869 8.0455419 186.96663 8.8934394 184.33398 9.6933594 C 184.78392 7.8639294 187.34599 6.52745 189.8125 6.5 z M 182.18555 9.390625 C 182.36547 9.396625 182.60541 9.4803994 182.90625 9.6933594 C 181.73293 10.817039 181.40589 9.365465 182.18555 9.390625 z M 169.33789 11.019531 C 171.15301 11.039531 173.38211 11.74247 175.28516 11.5625 C 174.91678 16.19674 169.17845 12.3162 167.18945 11.5625 C 167.77424 11.14248 168.51284 11.010421 169.33789 11.019531 z M 164.04492 12.462891 C 164.57935 12.463891 165.15057 12.534887 165.75977 12.685547 C 164.80577 13.908677 160.92763 16.051195 163.37891 17.546875 C 163.45911 18.357875 161.69006 17.717065 160.99805 17.921875 C 160.97875 16.657275 162.40691 16.008898 161.47266 14.554688 C 159.20154 15.139988 159.93865 18.088585 157.1875 18.296875 C 158.32871 15.808225 160.30388 12.454581 164.04492 12.462891 z M 166.4668 15.308594 C 167.00123 15.322994 167.58632 15.537834 168.14258 16.052734 C 168.10388 17.269224 167.53209 18.067695 166.23633 18.296875 C 163.2891 17.762455 164.55814 15.256934 166.4668 15.308594 z M 159.56836 19.044922 C 162.34611 18.970822 166.33995 20.251602 169.57031 19.044922 C 169.1979 22.957122 161.58557 20.984402 159.56836 19.044922 z M 168.86914 25.369141 C 170.10467 25.362141 171.06313 27.658814 171.47461 25.777344 C 174.17537 26.893804 169.72242 27.214031 170.04688 28.769531 C 169.66398 28.571691 169.27334 28.378381 168.61719 28.394531 C 169.14477 27.687361 169.22571 26.628544 169.57031 25.777344 C 168.03997 25.546894 168.9159 27.122831 167.66406 26.150391 C 167.78216 25.743941 168.61155 25.896474 168.61719 25.402344 C 168.70189 25.379444 168.78677 25.369541 168.86914 25.369141 z M 160.63477 25.773438 C 160.74703 25.768438 160.86822 25.769344 160.99805 25.777344 C 160.48981 26.126184 160.84962 27.156097 159.56836 26.898438 C 159.49286 26.184387 159.84888 25.810557 160.63477 25.773438 z M 171.95117 27.646484 C 173.41379 27.715184 172.95013 29.661928 171.47461 29.517578 C 171.32347 28.650238 171.55092 28.080474 171.95117 27.646484 z M 160.52148 28.021484 L 162.90234 28.021484 C 162.84354 28.973344 162.20998 29.471678 160.99805 29.517578 C 160.62765 29.184568 160.48601 28.673254 160.52148 28.021484 z M 124.78516 34.369141 C 124.96315 34.336741 125.27268 34.425016 125.75391 34.753906 C 124.91146 35.656546 124.25121 34.466211 124.78516 34.369141 z M 152.42578 34.380859 L 153.37695 34.380859 L 153.37695 35.128906 L 152.42578 35.128906 L 152.42578 34.380859 z M 114.79883 35.876953 L 116.22852 35.876953 C 116.36273 36.480923 115.77815 36.52169 115.75195 37 L 114.79883 37 L 114.79883 35.876953 z M 135.09375 36.152344 C 135.27512 36.154344 135.49227 36.1833 135.75586 36.25 C 134.12557 38.83524 137.48598 36.886611 137.66211 38.869141 C 134.7171 38.287651 135.68855 39.251361 134.80469 41.113281 L 132.89844 41.113281 C 134.00236 39.282381 134.6432 39.023207 132.89844 37.373047 C 134.30873 37.498517 133.82414 36.137234 135.09375 36.152344 z M 130.51758 36.25 L 132.42188 36.25 C 132.90149 37.37532 131.36074 36.91452 130.51758 37 L 130.51758 36.25 z M 145.48633 36.775391 C 146.27401 36.740891 147.24571 37.253364 147.18555 38.121094 C 145.9712 38.077994 144.73537 38.05151 144.80469 37 C 144.98102 36.85992 145.22376 36.786861 145.48633 36.775391 z M 121.94336 37 C 121.09496 38.31683 118.46653 39.846997 117.18164 39.617188 C 117.69632 37.902127 120.20301 37.75274 121.94336 37 z M 165.75977 37 C 165.67067 38.05188 164.93182 38.591321 163.37891 38.494141 C 163.31001 37.317861 164.60023 37.21113 165.75977 37 z M 140.75 37.167969 C 142.39591 37.230069 143.84819 40.209451 139.08984 38.869141 C 139.43308 37.566921 140.10595 37.143659 140.75 37.167969 z M 111.11328 37.712891 C 111.68656 37.739991 111.98862 37.980101 111.94141 38.494141 L 110.51367 38.494141 L 110.51367 37.748047 C 110.63317 37.732147 110.74558 37.720144 110.85156 37.714844 C 110.94436 37.709844 111.03138 37.710844 111.11328 37.714844 L 111.11328 37.712891 z M 108.70117 37.724609 C 108.97428 37.720609 109.26533 37.732494 109.56055 37.746094 C 110.04944 39.002784 108.07967 38.328271 107.17969 38.494141 C 107.23229 37.880921 107.88185 37.735619 108.70117 37.724609 z M 123.62695 38.03125 C 123.83494 38.02325 124.06859 38.049894 124.32617 38.121094 C 123.84051 38.612704 123.85831 39.500917 123.37305 39.992188 C 121.95713 39.850938 122.17095 38.08807 123.62695 38.03125 z M 161.0957 38.097656 C 161.2114 38.092656 161.33704 38.100194 161.47266 38.121094 L 161.47266 39.617188 C 161.87852 39.685788 161.92181 39.470727 161.94922 39.242188 C 162.73797 39.082008 161.90671 40.636671 161.47266 40.738281 C 159.83243 40.935941 159.3603 38.169696 161.0957 38.097656 z M 151.4707 38.494141 L 152.90039 38.494141 C 153.16236 39.323501 151.99234 39.027777 151.94922 39.617188 C 151.39061 39.556787 151.54527 38.934461 151.4707 38.494141 z M 155.64844 39.105469 C 156.59717 39.127569 157.77991 39.313508 159.0918 39.242188 C 158.37278 40.174417 157.61835 41.077075 157.1875 42.234375 C 157.78844 42.924125 159.72064 41.799545 160.52148 42.984375 C 160.90396 44.405985 158.26966 43.457929 157.1875 43.730469 C 157.34952 42.979939 157.08967 42.561255 156.23438 42.609375 C 157.25406 41.605295 157.25406 40.621577 156.23438 39.617188 C 154.51905 39.392117 154.83152 40.757911 153.37695 40.738281 C 153.59663 39.320421 154.42864 39.077139 155.64844 39.105469 z M 148.61523 39.242188 C 148.48102 40.508057 148.04167 41.535718 146.23242 41.486328 C 146.71446 40.493318 147.01678 39.358677 148.61523 39.242188 z M 100.98828 39.617188 C 99.190331 42.385388 96.080381 41.810032 93.369141 43.732422 C 92.860101 42.334862 94.550453 42.666461 94.320312 41.488281 C 96.515663 41.840911 97.462447 41.213437 97.654297 39.992188 C 98.571617 40.718348 99.570791 39.597868 100.98828 39.617188 z M 139.37305 39.880859 C 140.44766 39.863959 141.814 40.355604 142.90039 39.990234 C 143.24781 41.011094 141.95331 40.743078 141.94727 41.486328 C 139.76159 41.389528 139.64707 41.088758 137.66211 41.486328 C 137.87882 40.214588 138.53723 39.894029 139.37305 39.880859 z M 163.66211 39.980469 C 164.89145 40.067269 163.50995 42.202308 165.2832 41.861328 C 165.03171 42.162048 164.78803 42.469355 164.80859 42.984375 C 163.63414 43.033775 162.51226 43.040135 161.94922 42.609375 C 162.19185 41.553695 163.10203 41.021917 163.37891 39.992188 C 163.48577 39.978487 163.58015 39.974669 163.66211 39.980469 z M 151.47266 39.992188 C 153.44433 40.597118 150.62092 42.426085 149.0918 42.609375 C 148.39212 41.727465 148.08604 41.912671 148.61523 40.738281 C 149.87754 40.732281 151.41946 40.947527 151.47266 39.992188 z M 108.13281 40.738281 L 109.08398 40.738281 L 109.08398 41.486328 L 108.13281 41.486328 L 108.13281 40.738281 z M 125.75391 40.738281 C 127.11134 40.919031 127.1217 42.160085 127.66016 42.984375 C 126.36479 42.755185 125.7926 41.955091 125.75391 40.738281 z M 144.80469 40.738281 C 143.1486 42.522661 144.56337 42.181395 146.23438 42.609375 C 146.20657 44.136715 139.79937 42.408496 139.56641 44.853516 C 137.55041 44.441996 135.69984 43.900218 135.75586 41.861328 C 137.45185 41.775828 138.24594 42.400072 138.13672 43.732422 C 141.37594 43.533312 141.92135 41.216901 144.80469 40.738281 z M 155.2832 40.738281 L 156.23438 40.738281 L 156.23438 41.486328 L 155.2832 41.486328 L 155.2832 40.738281 z M 154.51562 41.480469 C 155.36137 41.517569 154.91407 42.570505 155.75781 42.609375 C 154.49993 44.384255 153.64607 42.618282 150.99609 43.732422 C 151.41001 42.436802 154.17416 42.987761 154.32812 41.488281 C 154.39673 41.481281 154.45925 41.478469 154.51562 41.480469 z M 92.416016 41.486328 C 94.245406 41.565128 91.488344 43.810722 89.558594 43.357422 C 89.444934 41.896242 91.327406 42.002938 92.416016 41.486328 z M 86.824219 42.201172 C 87.397549 42.228372 87.701207 42.470095 87.654297 42.984375 L 86.224609 42.984375 L 86.224609 42.234375 C 86.344099 42.218475 86.45652 42.208425 86.5625 42.203125 C 86.6552 42.198125 86.742309 42.197172 86.824219 42.201172 z M 130.04102 42.236328 C 130.65364 43.500618 130.66284 45.236429 131.94531 45.974609 C 129.64355 46.131939 129.21076 43.352158 130.04102 42.236328 z M 123.84961 42.984375 C 123.71661 43.851395 122.57653 43.843002 121.94336 43.357422 C 122.09127 42.849682 123.13663 43.047995 123.84961 42.984375 z M 165.75977 42.984375 C 166.45703 43.309465 167.26966 43.542486 167.18945 44.478516 C 166.74893 45.505076 165.6859 46.042879 164.33008 46.349609 C 163.87142 44.493369 165.60057 44.355655 165.75977 42.984375 z M 148.61914 43.337891 C 148.76936 43.338841 148.92766 43.345722 149.0918 43.357422 C 149.37151 44.948702 146.51974 44.079769 147.18555 45.974609 C 146.08163 46.093959 145.35726 45.915592 144.80469 45.601562 C 145.62614 44.493733 146.36586 43.321491 148.61914 43.337891 z M 91.462891 43.730469 C 92.553511 44.611729 90.577646 46.258486 90.035156 47.097656 C 88.208586 47.165756 89.862084 46.790669 89.558594 45.974609 C 87.508334 46.088569 85.714597 46.001086 85.748047 44.478516 C 88.414547 43.725136 90.067171 45.679769 91.462891 43.730469 z M 120.17969 44.162109 C 120.92056 44.174809 121.98178 44.984566 122.89648 44.853516 C 122.15891 45.883546 120.03729 44.888766 119.5625 44.478516 C 119.721 44.241266 119.93274 44.157869 120.17969 44.162109 z M 109.54297 44.46875 C 109.72096 44.43635 110.03244 44.524636 110.51367 44.853516 C 109.67122 45.756146 109.00902 44.56587 109.54297 44.46875 z M 154.33008 44.478516 C 154.16806 45.229366 154.42841 45.649992 155.2832 45.601562 C 155.07242 45.934883 154.86451 46.270479 154.33008 46.349609 L 153.37695 46.349609 C 153.94887 45.858339 153.56316 45.762526 153.37695 45.228516 C 152.40523 45.463396 153.24442 47.118079 151.47266 46.724609 C 151.10267 44.938029 152.46723 44.512076 154.33008 44.478516 z M 141.4707 44.480469 L 143.37695 44.480469 C 143.85697 45.605479 142.31467 45.143366 141.4707 45.228516 L 141.4707 44.480469 z M 79.650391 44.591797 C 80.015281 44.585797 80.461368 45.024546 80.986328 45.228516 C 80.871458 46.192726 80.165858 44.714766 79.080078 45.228516 C 79.241488 44.759046 79.431461 44.595277 79.650391 44.591797 z M 135.75586 44.853516 C 133.49441 46.275126 135.20554 47.9137 135.2793 48.96875 C 132.59224 48.66486 132.87373 44.790196 135.75586 44.853516 z M 155.75781 44.853516 L 158.61523 44.853516 C 158.84093 46.027896 157.33421 45.842399 157.1875 46.724609 C 157.77392 47.860699 158.82533 46.319119 160.04492 46.724609 C 159.77529 48.258279 157.54587 48.25303 156.23438 48.96875 C 156.0397 49.86996 157.10511 49.780631 156.71094 50.837891 L 153.85352 50.837891 C 154.26502 48.697721 156.63482 46.847756 155.75781 44.853516 z M 82.210938 44.898438 C 83.150797 44.848638 84.539974 45.499473 85.271484 45.601562 C 85.573764 47.622393 83.231769 48.143867 84.318359 49.716797 C 82.517579 49.175177 83.40497 50.744674 81.9375 50.464844 C 82.74237 49.226834 83.276099 47.776179 84.318359 46.724609 C 83.981819 45.741739 82.083227 45.986656 81.460938 45.228516 C 81.633238 45.009626 81.897647 44.915037 82.210938 44.898438 z M 125.56445 45.171875 C 126.53031 45.151275 127.80324 45.373396 128.61133 45.228516 C 128.8334 46.655826 124.89204 45.936142 124.32617 45.601562 C 124.51616 45.283192 124.98493 45.184265 125.56445 45.171875 z M 148.61523 45.228516 L 149.56836 45.228516 L 149.56836 46.349609 L 148.13867 46.349609 C 148.00406 45.745319 148.58863 45.706506 148.61523 45.228516 z M 140.30859 45.902344 C 140.84817 45.921944 141.41083 46.206819 140.99414 46.724609 L 140.04102 46.724609 C 140.12892 46.406169 139.85544 46.370819 139.56445 46.349609 C 139.48175 46.031909 139.88891 45.887064 140.30859 45.902344 z M 161.94922 45.974609 L 162.90234 45.974609 L 162.90234 46.724609 L 161.94922 46.724609 L 161.94922 45.974609 z M 82.414062 46.349609 C 82.630093 47.962099 79.838826 48.542433 78.603516 47.845703 C 79.142376 46.772303 80.646333 46.457239 82.414062 46.349609 z M 142.375 46.363281 C 142.55092 46.384481 142.73558 46.491589 142.90039 46.724609 L 142.90039 47.472656 C 141.01384 47.777176 141.61263 46.271601 142.375 46.363281 z M 113.42773 46.59375 C 115.14207 46.59392 117.70372 47.40526 117.6582 48.96875 C 115.89168 48.23626 113.94791 47.642589 112.41797 46.724609 C 112.68096 46.637609 113.03211 46.59372 113.42773 46.59375 z M 122.59375 46.681641 C 123.62824 46.710841 124.42189 46.927906 125.27734 47.097656 C 125.22734 48.227726 121.60457 47.772326 121.46875 46.722656 C 121.87793 46.681756 122.24892 46.672041 122.59375 46.681641 z M 93.337891 46.714844 C 97.895411 46.731544 101.1615 49.896461 105.75195 50.837891 C 108.98633 51.501371 112.77788 51.337347 116.70508 51.960938 C 116.08521 54.420507 111.88544 52.372127 109.08594 51.960938 C 105.62746 51.453198 101.08783 51.686467 100.03711 49.341797 C 97.244849 50.024277 95.180228 47.610939 92.892578 46.724609 C 93.042368 46.718609 93.190871 46.714844 93.337891 46.714844 z M 87.021484 47.09375 C 90.152084 47.14915 87.818957 49.994627 85.748047 49.716797 C 85.847147 51.414747 84.665433 52.108137 82.414062 51.960938 C 83.998812 50.219298 87.100992 49.380266 86.701172 47.097656 C 86.813722 47.093656 86.920494 47.09175 87.021484 47.09375 z M 128.61719 47.269531 C 129.97967 47.236431 131.47693 47.512393 131.94531 48.220703 C 130.20499 47.966523 128.48185 47.697873 126.23047 47.845703 C 126.57907 47.507793 127.55748 47.295261 128.61719 47.269531 z M 73.365234 47.472656 L 77.175781 47.472656 C 77.466781 48.947766 74.560644 47.912703 73.365234 48.220703 L 73.365234 47.472656 z M 149.56836 47.472656 C 148.88279 48.430216 149.0865 50.088107 146.70898 49.716797 C 147.46749 48.816537 148.01021 47.745206 149.56836 47.472656 z M 161.47266 47.472656 C 161.85515 47.670496 162.2462 47.861853 162.90234 47.845703 C 163.23606 49.140693 161.23325 49.18728 160.52148 48.59375 C 160.68955 48.10247 161.35901 48.006356 161.47266 47.472656 z M 140.04102 47.845703 C 140.66332 49.456933 138.69049 49.029257 138.13672 49.716797 C 138.01218 50.937397 139.61703 50.796468 140.04102 51.585938 C 139.37682 52.672638 137.69061 51.481331 137.18359 51.212891 C 137.04856 49.236691 137.95731 48.079953 140.04102 47.845703 z M 121.88477 48.173828 C 122.70313 48.185728 122.54466 48.96459 123.37305 48.96875 C 123.074 49.87882 120.96737 49.166543 121.46875 48.220703 C 121.63122 48.186603 121.76786 48.172128 121.88477 48.173828 z M 166.23633 48.220703 C 164.8805 50.201023 167.56308 51.649878 162.90234 51.585938 C 163.27515 49.884188 164.53066 48.875953 166.23633 48.220703 z M 80.509766 48.966797 L 81.462891 48.966797 C 81.685371 49.765127 80.781643 49.681027 80.033203 49.716797 C 80.123503 49.413857 80.510576 49.342227 80.509766 48.966797 z M 77.921875 49.244141 C 79.168575 49.233641 80.007868 49.754721 79.080078 51.212891 C 77.141458 51.239491 76.824859 49.992564 74.318359 50.464844 C 75.021669 49.796614 76.675175 49.254621 77.921875 49.244141 z M 149.82422 49.328125 C 150.35763 49.345625 150.46287 49.698797 150.99609 49.716797 C 150.90499 50.019407 150.51792 50.089424 150.51953 50.464844 L 149.56836 50.464844 L 149.56836 49.341797 C 149.66456 49.328697 149.74802 49.325625 149.82422 49.328125 z M 69.697266 49.816406 C 70.179636 49.798806 70.484003 50.000311 70.507812 50.837891 C 68.750559 50.598581 67.228642 52.003994 67.173828 50.089844 C 68.162734 50.224274 69.077066 49.839046 69.697266 49.816406 z M 144.80469 50.089844 C 143.45411 51.824514 144.03022 53.151135 145.28125 54.578125 C 143.0061 54.785785 142.20291 56.150992 139.08984 55.701172 C 138.79925 54.225442 141.70343 55.261435 142.89844 54.953125 C 142.416 52.918685 141.90967 50.366194 144.80469 50.089844 z M 147.66211 50.837891 C 149.77041 50.790391 148.08691 52.785111 147.66211 53.082031 C 147.62221 54.484651 149.40795 54.455562 149.56836 55.701172 C 146.7084 55.492572 145.97378 52.514321 147.66211 50.837891 z M 161.36133 50.910156 C 162.54452 50.837356 158.88838 54.774548 162.90234 54.205078 C 163.24936 55.225618 161.95567 54.957612 161.94922 55.701172 C 159.12311 55.212742 160.68672 52.024201 160.52148 51.212891 C 160.92447 51.014031 161.1923 50.920566 161.36133 50.910156 z M 18.810547 50.970703 C 19.490372 50.966703 20.1003 51.042471 20.501953 51.212891 C 19.978809 52.453121 15.435598 52.007158 14.787109 51.960938 C 15.481772 51.371398 17.314933 50.979813 18.810547 50.970703 z M 79.898438 51.177734 C 80.624988 51.152934 80.897387 51.483178 81.460938 51.585938 C 80.982528 52.362417 79.355931 52.612341 79.556641 51.212891 C 79.681081 51.193191 79.794648 51.181234 79.898438 51.177734 z M 72.412109 51.212891 C 72.354109 52.165061 71.719752 52.663394 70.507812 52.708984 C 70.714973 51.874244 71.349289 51.375591 72.412109 51.212891 z M 133.47461 51.320312 C 133.70095 51.320003 133.98694 51.391967 134.32617 51.585938 C 132.62595 52.701127 132.4938 51.322112 133.47461 51.320312 z M 129.83008 51.513672 C 130.36965 51.533372 130.93383 51.816374 130.51758 52.333984 L 129.56445 52.333984 C 129.65195 52.016164 129.37808 51.982468 129.08789 51.960938 C 129.00519 51.643388 129.41042 51.498382 129.83008 51.513672 z M 156.39453 51.572266 C 157.97786 51.516466 157.3434 54.398308 155.75781 53.830078 C 155.412 52.686088 156.57937 52.729937 156.23438 51.585938 C 156.29008 51.577937 156.34346 51.574066 156.39453 51.572266 z M 153.37695 51.585938 C 153.63168 52.882818 152.67036 55.133712 154.33008 55.326172 C 153.42929 56.598372 152.66082 54.686595 151.47266 54.953125 C 151.38596 53.982595 152.9947 52.447788 151.94922 51.960938 C 152.02582 51.522517 152.81673 51.644807 153.37695 51.585938 z M 24.484375 51.919922 C 27.843451 51.844622 32.840716 53.588091 36.216797 53.832031 C 37.446062 53.921031 40.981676 53.385905 41.931641 54.953125 C 31.530018 54.006015 21.268328 52.462855 12.404297 54.953125 C 13.780674 52.485005 17.526489 53.061304 21.929688 52.708984 C 22.627751 52.653284 23.10529 52.038498 23.833984 51.960938 C 24.04238 51.938738 24.260437 51.924922 24.484375 51.919922 z M 75.746094 51.960938 L 77.652344 51.960938 C 78.131954 53.085948 76.590064 52.623824 75.746094 52.708984 L 75.746094 51.960938 z M 62.173828 52.050781 C 62.490314 52.069381 62.808063 52.182824 62.888672 52.333984 C 63.32073 53.143074 61.143807 53.201004 61.458984 52.333984 C 61.541204 52.108284 61.857342 52.032151 62.173828 52.050781 z M 89.037109 52.0625 C 90.162909 52.0535 91.739643 52.756191 91.939453 53.457031 C 89.899673 53.687791 89.996996 52.238054 88.128906 52.333984 C 88.336366 52.147054 88.661839 52.06535 89.037109 52.0625 z M 117.54688 52.183594 C 118.06915 52.145594 118.97961 52.668424 119.5625 52.708984 C 120.87037 52.800484 123.79157 52.083531 123.84961 53.457031 C 122.29952 52.736251 119.07512 54.165261 117.18164 53.082031 C 117.05922 52.429991 117.23351 52.206414 117.54688 52.183594 z M 131.80859 53.396484 C 133.87076 53.379484 136.24873 53.610151 138.13672 53.457031 C 136.4766 54.602301 130.92356 54.414738 128.61133 53.830078 C 129.44743 53.504828 130.57129 53.406694 131.80859 53.396484 z M 57.035156 53.423828 C 57.127886 53.418828 57.214998 53.419828 57.296875 53.423828 C 57.870064 53.451028 58.171899 53.690788 58.125 54.205078 L 56.697266 54.205078 L 56.697266 53.457031 C 56.816765 53.441131 56.929179 53.429128 57.035156 53.423828 z M 82.414062 53.457031 C 82.206092 53.917281 81.805708 54.225008 80.986328 54.205078 C 81.193888 53.745138 81.594682 53.436771 82.414062 53.457031 z M 88.859375 54.136719 C 89.491755 54.134719 90.331109 54.445358 90.511719 54.580078 C 90.108689 55.676598 88.976896 54.356598 88.128906 54.580078 C 88.174706 54.251748 88.479945 54.137599 88.859375 54.136719 z M 62.041016 54.152344 C 62.164207 54.148344 62.289538 54.164178 62.412109 54.205078 C 62.244041 54.696668 61.573043 54.792482 61.458984 55.326172 C 60.421113 55.193232 61.178678 54.183354 62.041016 54.152344 z M 74.794922 54.205078 C 74.586952 54.665328 74.184614 54.973065 73.365234 54.953125 C 73.573204 54.493185 73.975542 54.185128 74.794922 54.205078 z M 101.46484 54.205078 C 105.00232 55.416498 110.02627 54.457095 113.37109 54.953125 C 114.21626 55.078805 116.28172 55.146629 116.22852 56.449219 C 110.54648 56.174139 104.73476 55.999735 100.51172 54.578125 C 100.52462 54.214095 101.09526 54.288958 101.46484 54.205078 z M 156.23438 54.205078 C 157.15572 54.727368 158.83166 54.658982 158.61523 56.076172 C 157.6967 55.551012 155.70034 55.871378 156.23438 54.205078 z M 79.556641 54.578125 C 79.116921 55.282115 77.015308 56.311089 79.080078 56.824219 C 78.766508 57.944159 78.062871 56.466199 77.175781 56.824219 C 76.791691 55.150629 78.022671 54.744935 79.556641 54.578125 z M 72.472656 54.90625 C 72.589536 54.90425 72.726252 54.919025 72.888672 54.953125 C 72.909672 55.593185 72.53601 55.922642 71.9375 56.076172 C 73.02732 57.259102 75.092936 57.324726 76.222656 57.572266 C 74.213906 58.636176 71.282215 57.224082 70.984375 55.701172 C 71.812415 55.697172 71.654486 54.91823 72.472656 54.90625 z M 86.28125 54.908203 C 87.38114 54.917203 87.511117 55.689469 87.654297 56.449219 C 86.548367 56.320709 85.421587 56.207275 85.748047 54.953125 C 85.947707 54.921025 86.12413 54.906803 86.28125 54.908203 z M 131.11719 54.919922 C 131.69043 54.946922 131.99252 55.186652 131.94531 55.701172 L 130.51562 55.701172 L 130.51562 54.953125 C 130.63513 54.937225 130.74949 54.927175 130.85547 54.921875 C 130.94817 54.916875 131.0353 54.915922 131.11719 54.919922 z M 64.792969 54.953125 C 64.364538 56.070525 61.371804 56.942282 64.316406 57.570312 C 63.704997 58.615232 62.41597 57.113539 61.935547 56.824219 C 62.727519 56.073679 63.213861 55.084485 64.792969 54.953125 z M 68.603516 54.953125 C 67.440751 55.536195 67.228473 56.865526 65.746094 57.197266 C 65.769894 55.719946 66.722535 54.972115 68.603516 54.953125 z M 81.939453 55.326172 C 83.777713 55.253972 83.218404 57.065109 85.271484 56.824219 C 84.206654 57.755819 81.625083 56.716442 81.939453 55.326172 z M 94.320312 55.326172 L 95.273438 55.326172 L 95.273438 56.074219 L 94.320312 56.074219 L 94.320312 55.326172 z M 120.03906 55.34375 C 121.32883 55.34375 122.61838 55.712299 122.89648 56.449219 L 117.18164 56.449219 C 117.45954 55.712299 118.74928 55.34375 120.03906 55.34375 z M 136.74805 55.521484 C 137.2142 55.524484 137.57552 55.582742 137.66016 55.701172 C 137.19385 56.581482 134.91178 56.037289 134.32617 56.824219 C 133.004 55.993999 135.34959 55.511054 136.74805 55.521484 z M 145.91602 55.835938 C 146.20637 55.820138 146.48529 55.889592 146.70898 56.076172 C 146.30392 56.630752 145.51144 56.879939 144.32812 56.824219 C 144.58693 56.316719 145.27728 55.870757 145.91602 55.835938 z M 128.13477 56.076172 L 129.08789 56.076172 L 129.08789 56.824219 L 128.13477 56.824219 L 128.13477 56.076172 z M 142.0332 56.798828 C 142.15659 56.801828 142.28612 56.811019 142.42188 56.824219 C 142.1087 57.325949 141.40427 57.519032 140.51758 57.570312 C 140.61808 56.994752 141.16947 56.774728 142.0332 56.798828 z M 80.291016 57.181641 C 80.824226 57.199341 80.928068 57.552593 81.460938 57.570312 C 81.649957 58.296163 79.292823 58.117786 80.033203 57.197266 C 80.129303 57.184166 80.214836 57.179141 80.291016 57.181641 z M 137.20508 57.181641 C 137.99421 57.185641 138.7067 57.248313 139.08984 57.570312 C 138.97538 58.111283 135.17024 58.440986 135.75586 57.197266 C 136.23028 57.199266 136.7316 57.179341 137.20508 57.181641 z M 148.13672 57.197266 C 146.43711 58.616346 142.15698 60.848729 140.04102 58.693359 C 143.35723 58.679759 145.57904 57.807256 148.13672 57.197266 z M 109.02539 57.476562 C 109.19735 57.480562 109.37667 57.509312 109.56055 57.570312 C 109.3671 58.291412 107.71526 57.865426 108.13281 59.066406 C 107.01875 58.685836 107.82168 57.451852 109.02539 57.476562 z M 112.82812 57.517578 C 113.5926 57.494378 114.66093 57.709463 115.27734 57.570312 C 114.79732 59.027383 113.63619 57.629072 111.94141 57.945312 C 112.01831 57.631703 112.36944 57.531458 112.82812 57.517578 z M 48.599609 57.570312 C 41.15871 59.910223 34.505396 57.731453 28.597656 60.189453 C 27.155987 60.074853 26.895405 59.031796 24.787109 59.441406 C 24.19827 60.651876 26.329075 59.72703 25.740234 60.9375 C 23.100734 59.4798 21.816619 61.94824 18.119141 60.9375 C 16.497314 61.19074 20.217531 62.180354 18.595703 62.433594 C 14.795048 61.458944 12.066332 63.514068 8.59375 63.929688 C 9.067724 61.862968 12.739672 61.846237 14.787109 62.060547 C 22.396883 57.446557 37.352008 58.170173 48.599609 57.570312 z M 158.61523 57.570312 C 159.09566 58.695003 157.5545 58.233219 156.71094 58.318359 C 157.0241 57.816319 157.72815 57.621592 158.61523 57.570312 z M 60.505859 57.945312 L 61.458984 57.945312 L 61.458984 58.693359 L 60.505859 58.693359 L 60.505859 57.945312 z M 70.726562 58.226562 C 71.518362 58.199362 72.35056 58.431106 71.9375 59.066406 C 71.38493 58.752076 70.659418 58.574339 69.554688 58.693359 C 69.518388 58.426629 70.110723 58.247672 70.726562 58.226562 z M 113.37109 58.318359 C 114.1155 59.770989 109.32679 60.039949 109.56055 58.693359 C 111.1977 58.857019 112.23049 58.544699 113.37109 58.318359 z M 127.6582 58.318359 C 128.10275 58.717519 129.41556 58.435416 129.08789 59.441406 C 127.85096 59.665206 127.37325 59.290469 127.6582 58.318359 z M 150.29688 58.658203 C 150.51979 58.662203 150.75442 58.675059 150.99609 58.693359 C 150.36251 59.567659 148.86758 59.764633 147.66211 60.189453 C 147.67551 58.999823 148.73638 58.632893 150.29688 58.658203 z M 115.13867 58.660156 C 115.23137 58.655156 115.31849 58.656156 115.40039 58.660156 C 115.97367 58.687256 116.27542 58.926886 116.22852 59.441406 L 114.79883 59.441406 L 114.79883 58.693359 C 114.91828 58.677459 115.03271 58.665456 115.13867 58.660156 z M 62.207031 58.666016 C 62.767443 58.662016 62.84177 59.042286 62.888672 59.441406 C 62.483213 59.372706 62.439112 59.585903 62.412109 59.814453 C 61.854302 59.754053 62.010108 59.133359 61.935547 58.693359 C 62.036809 58.676159 62.126969 58.666516 62.207031 58.666016 z M 156.23438 58.693359 C 155.05227 59.261249 154.29514 60.162223 152.42383 60.189453 C 152.95826 59.112553 154.7516 59.025739 156.23438 58.693359 z M 159.0918 58.693359 L 160.04492 58.693359 L 160.04492 59.441406 L 159.0918 59.441406 L 159.0918 58.693359 z M 65.746094 59.441406 C 66.331712 59.604746 66.722658 59.920913 66.697266 60.564453 C 65.927867 60.669863 65.87852 60.209703 65.269531 60.189453 C 65.359811 59.886193 65.747708 59.816836 65.746094 59.441406 z M 173.54102 59.867188 C 173.48772 59.973847 173.43028 60.07816 173.38086 60.1875 C 173.65697 60.18723 173.92583 60.198884 174.19336 60.208984 C 174.18736 60.055784 174.18409 59.970667 174.17969 59.867188 L 174.01758 59.867188 C 173.97898 59.867188 173.76299 59.866188 173.54102 59.867188 z M 124.18359 60.160156 C 124.82891 60.198756 124.61998 60.90786 125.27734 60.9375 C 125.08428 61.86752 123.09714 61.222343 123.84961 60.189453 C 123.9816 60.163653 124.0914 60.154656 124.18359 60.160156 z M 10.023438 60.189453 L 11.927734 60.189453 C 12.40735 61.314143 10.8674 60.85203 10.023438 60.9375 L 10.023438 60.189453 z M 62.888672 60.189453 L 64.792969 60.189453 C 65.272985 61.314143 63.732636 60.85203 62.888672 60.9375 L 62.888672 60.189453 z M 109.81641 60.496094 C 110.44887 60.494094 111.28644 60.80257 111.4668 60.9375 C 111.06215 62.03465 110.2673 60.45064 109.08398 60.9375 C 109.12978 60.60904 109.43694 60.496994 109.81641 60.496094 z M 74.441406 60.904297 C 75.014556 60.931397 75.316741 61.171257 75.269531 61.685547 L 73.841797 61.685547 L 73.841797 60.9375 C 73.961247 60.9216 74.073747 60.91165 74.179688 60.90625 C 74.272387 60.90125 74.359526 60.900297 74.441406 60.904297 z M 131.08398 60.916016 C 131.35708 60.912016 131.65008 60.9239 131.94531 60.9375 C 132.43459 62.19418 130.46484 61.519677 129.56445 61.685547 C 129.61705 61.072087 130.26465 60.926886 131.08398 60.916016 z M 127.18359 60.9375 L 128.61133 60.9375 L 128.61133 62.060547 C 127.5727 62.128247 127.09693 61.75356 127.18359 60.9375 z M 132.42188 60.9375 L 137.18359 60.9375 C 137.49272 62.14227 132.11274 62.14227 132.42188 60.9375 z M 138.13672 60.9375 L 140.04297 60.9375 C 140.52259 62.0625 138.98149 61.600077 138.13672 61.685547 L 138.13672 60.9375 z M 88.128906 61.310547 C 87.995906 62.177577 86.857379 62.170817 86.224609 61.685547 C 86.372119 61.177497 87.416336 61.374177 88.128906 61.310547 z M 152.51172 61.660156 C 152.63514 61.663156 152.76466 61.672347 152.90039 61.685547 C 153.38 62.810557 151.84046 62.348114 150.99609 62.433594 C 151.09589 61.857754 151.64777 61.636226 152.51172 61.660156 z M 80.509766 61.685547 C 82.173106 62.503507 83.044694 62.243507 85.271484 62.060547 C 85.616084 63.826877 83.55006 63.700198 81.9375 63.929688 C 81.60822 65.435188 83.942557 64.848128 83.841797 66.173828 C 82.486787 66.749948 80.582371 67.300408 79.556641 66.173828 C 79.638041 64.492008 79.935446 62.979907 80.509766 61.685547 z M 59.199219 62.3125 C 60.199803 62.3287 61.450001 62.507544 62.888672 62.433594 C 61.305131 64.128064 58.783393 63.018358 56.697266 63.929688 C 57.037779 62.538528 57.912752 62.29161 59.199219 62.3125 z M 78.496094 62.380859 C 78.681134 62.377859 78.875878 62.395294 79.080078 62.433594 C 78.179688 64.054624 77.434533 64.816515 78.126953 66.921875 C 75.143453 66.868175 75.720464 62.429859 78.496094 62.380859 z M 121.46875 62.433594 L 122.41992 62.433594 C 122.64199 63.231604 121.74023 63.145871 120.99219 63.181641 C 121.08289 62.878711 121.46995 62.808704 121.46875 62.433594 z M 90.566406 62.638672 C 91.425316 62.649372 92.359231 62.712641 93.369141 62.806641 C 93.474741 64.385581 90.894426 63.856294 90.035156 64.677734 C 90.152436 65.679284 92.040278 66.099805 90.986328 66.921875 C 89.446728 66.634445 88.494466 65.886634 88.128906 64.677734 C 89.627006 65.106024 89.287516 64.090498 90.035156 63.929688 C 89.637756 63.283298 87.108469 64.094754 86.224609 64.302734 C 86.143609 65.239074 86.957047 65.475691 87.654297 65.800781 C 86.891347 66.734281 84.844425 65.542524 84.796875 64.677734 C 86.084575 63.060254 87.989686 62.606392 90.566406 62.638672 z M 97.900391 63.060547 C 98.759981 63.069547 99.643779 63.217808 100.51172 63.554688 C 100.97683 65.081707 97.665749 62.873954 98.130859 65.052734 C 98.798289 65.978004 99.771911 65.711621 100.98828 65.425781 C 101.18859 68.038241 97.405789 65.267852 98.130859 68.044922 C 96.877409 67.657152 95.209011 67.596482 93.369141 67.669922 C 93.550101 66.405642 92.542803 66.074391 91.939453 65.425781 C 92.965083 64.263431 95.321631 63.033787 97.900391 63.060547 z M 54.533203 63.197266 C 54.726707 63.177566 54.958811 63.265198 55.269531 63.554688 C 54.748403 63.933588 53.712547 64.774174 52.886719 65.052734 C 49.781711 66.101144 47.378418 66.366335 43.361328 66.921875 C 41.02572 67.244435 38.701871 68.520586 36.21875 69.166016 C 28.22609 71.243516 18.781067 73.0144 10.023438 73.28125 C 10.433329 71.41046 12.496702 72.286566 13.833984 71.785156 C 14.773064 71.151116 14.926268 69.898069 17.167969 70.287109 C 16.557769 70.930019 14.901169 70.752266 14.787109 71.785156 C 17.186398 71.549326 20.000403 71.640029 20.976562 70.287109 C 22.506498 69.958539 21.630571 71.521266 22.882812 71.410156 C 23.832774 70.233546 23.521739 70.776379 25.263672 70.662109 C 25.900474 70.620009 26.971689 69.586223 27.167969 69.539062 C 30.438225 68.754023 34.471515 68.699972 38.123047 67.669922 C 42.019627 66.570242 49.139032 64.936948 53.363281 63.929688 C 53.865367 63.809998 54.107494 63.240686 54.533203 63.197266 z M 66.697266 63.929688 C 64.131522 65.281027 59.730133 65.189688 56.697266 66.173828 C 58.563337 64.460678 63.015913 64.301627 66.697266 63.929688 z M 104.29688 64.041016 C 105.86817 64.058416 107.78778 64.718854 108.60938 64.677734 C 108.93099 66.027474 104.58724 65.622934 104.79883 64.677734 C 103.11212 64.475134 103.62813 66.003381 101.94141 65.800781 C 102.06308 64.403711 103.07475 64.027446 104.29688 64.041016 z M 73.929688 64.652344 C 74.053098 64.655344 74.182639 64.664634 74.318359 64.677734 C 74.798379 65.802744 73.256069 65.340321 72.412109 65.425781 C 72.512259 64.849951 73.065808 64.628554 73.929688 64.652344 z M 10.28125 65.410156 C 10.814464 65.427656 10.918305 65.783061 11.451172 65.800781 C 11.640198 66.526941 9.2830555 66.346301 10.023438 65.425781 C 10.119568 65.412681 10.205077 65.407656 10.28125 65.410156 z M 55.744141 65.800781 C 54.990056 67.452841 51.024632 66.581642 49.552734 67.669922 C 50.427731 66.112522 53.445203 66.239841 55.744141 65.800781 z M 73.365234 66.173828 C 73.157264 66.634088 72.75688 66.941805 71.9375 66.921875 C 71.71502 66.123225 72.616794 66.209278 73.365234 66.173828 z M 48.599609 67.669922 C 47.754034 68.626532 45.721531 68.651956 44.3125 69.166016 C 44.934793 68.033726 46.546529 67.677842 48.599609 67.669922 z M 11.453125 69.541016 C 13.795989 70.218746 9.996325 71.985993 8.59375 72.158203 C 8.237867 71.005653 10.236072 71.703383 9.546875 70.289062 C 10.391241 70.203862 11.932741 70.666016 11.453125 69.541016 z M 38.123047 69.914062 L 39.074219 69.914062 L 39.074219 70.662109 L 38.123047 70.662109 L 38.123047 69.914062 z M 37.646484 70.662109 C 37.789965 72.021349 35.106888 71.162516 34.3125 71.785156 C 34.34918 70.567096 36.471224 70.985929 37.646484 70.662109 z M 146.45703 70.681641 C 147.1345 70.646241 147.74179 70.956576 147.66211 71.785156 C 146.54005 71.776156 146.25966 72.428213 144.80469 72.158203 C 144.59929 71.342513 145.586 70.727141 146.45703 70.681641 z M 119.23242 72.091797 C 119.95919 72.128697 120.05989 72.657693 120.99219 72.533203 C 120.77213 74.352723 120.67395 73.939911 121.46875 75.150391 C 118.12312 76.138651 117.76191 79.470782 113.84961 80.013672 C 113.94151 78.569582 111.63623 79.007341 111.94336 77.394531 C 113.11136 78.124491 114.5259 76.654191 114.80078 75.525391 C 116.07599 76.300921 117.06321 75.522484 116.22852 74.402344 C 116.65171 74.568214 117.08048 74.730961 117.18164 75.150391 C 118.46895 74.541991 117.43003 73.936347 119.5625 73.654297 C 120.15054 72.443827 118.02249 73.368363 118.61133 72.158203 C 118.86366 72.100203 119.06471 72.083297 119.23242 72.091797 z M 31.931641 72.158203 C 30.728167 73.770693 27.532207 73.175047 25.738281 73.654297 C 22.515583 74.514677 17.682895 77.057837 12.404297 76.273438 C 14.562973 74.576117 17.676078 75.237284 20.025391 74.777344 C 23.667249 74.064484 27.366824 72.326913 31.931641 72.158203 z M 113.26172 72.482422 C 113.42849 72.470322 113.62079 72.484053 113.84766 72.533203 C 113.22012 73.411623 112.70597 74.377974 110.99023 74.402344 L 110.99023 72.90625 C 112.21149 73.89562 112.09431 72.567262 113.26172 72.482422 z M 143.375 73.654297 C 143.377 75.151887 143.125 76.451027 140.99414 76.273438 L 140.99414 74.402344 C 140.19733 74.898374 139.39806 75.393501 137.66016 75.150391 C 137.99105 72.583831 141.24534 74.499157 143.375 73.654297 z M 144.10938 75.136719 C 144.64252 75.154219 144.74608 75.507661 145.2793 75.525391 C 145.46833 76.250911 143.11078 76.070911 143.85156 75.150391 C 143.94766 75.137291 144.03322 75.134219 144.10938 75.136719 z M 146.01367 75.509766 C 146.54681 75.527266 146.65269 75.880707 147.18555 75.898438 C 147.37458 76.623958 145.01703 76.446211 145.75781 75.525391 C 145.85391 75.512291 145.93751 75.507266 146.01367 75.509766 z M 149.07031 76.339844 C 149.35629 76.361344 149.69106 76.612654 150.04297 76.646484 C 149.69394 77.312494 149.17707 76.700284 148.61523 76.646484 C 148.74596 76.396724 148.89873 76.326994 149.07031 76.339844 z M 151.03711 77.351562 C 151.54145 77.362262 152.00367 78.433528 152.42383 78.517578 C 151.60889 79.833138 151.46506 77.578971 150.51953 77.769531 C 150.69697 77.461371 150.86898 77.347972 151.03711 77.351562 z M 140 77.992188 C 139.9821 78.012687 139.96331 78.032234 139.94531 78.052734 C 139.95231 78.054734 139.9594 78.054641 139.9668 78.056641 C 139.9852 78.037841 139.9957 78.016587 140 77.992188 z M 118.45703 79.519531 C 120.20979 79.493531 122.55893 81.272392 122.89648 82.632812 C 120.60883 82.060502 118.86715 81.059222 117.18164 80.013672 C 117.52143 79.674582 117.96625 79.526811 118.45703 79.519531 z M 137.11133 79.720703 C 137.03613 79.757003 136.96868 79.796045 136.9707 79.828125 C 137.0228 79.799225 137.06952 79.763783 137.11133 79.720703 z M 149.79102 80.039062 C 149.79402 80.049662 149.79673 80.062266 149.80273 80.072266 C 149.84503 80.138666 149.93673 80.175569 150.00977 80.224609 C 149.93837 80.161609 149.86676 80.098622 149.79102 80.039062 z M 150.08594 80.294922 C 150.12844 80.361722 150.01874 80.466781 150.08594 80.519531 C 150.14564 80.566431 150.23332 80.549397 150.32227 80.529297 C 150.24777 80.447697 150.16774 80.370642 150.08594 80.294922 z M 150.41602 80.720703 C 150.38932 80.718703 150.37109 80.723188 150.37109 80.742188 C 150.37109 80.782888 150.43595 80.763894 150.50586 80.746094 C 150.50386 80.743094 150.502 80.742234 150.5 80.740234 C 150.4696 80.732234 150.43882 80.724656 150.41602 80.722656 L 150.41602 80.720703 z M 116.22852 80.761719 C 117.13939 80.918729 118.27987 80.898096 118.13477 81.884766 C 116.89019 81.989226 115.75011 82.009859 116.22852 80.761719 z M 124.93359 82.476562 C 126.23283 82.513163 127.95673 83.109706 128.13477 84.128906 C 126.21188 84.017796 124.41951 83.805932 123.84961 82.632812 C 124.11511 82.515772 124.50052 82.464363 124.93359 82.476562 z M 128.61133 84.128906 C 130.85465 84.112206 132.2127 84.7909 133.37305 85.625 C 131.92291 86.49519 128.95633 85.368176 128.61133 84.128906 z M 138.42188 86.335938 C 139.1173 86.350737 139.62856 86.512527 140.04297 86.748047 C 140.19492 87.615377 139.96626 88.182878 139.56641 88.617188 C 139.14241 88.326588 138.48961 88.214028 137.66016 88.242188 C 138.55369 87.528698 137.37722 87.566447 137.66016 86.373047 C 137.93614 86.343147 138.19006 86.331037 138.42188 86.335938 z M 136.23242 86.373047 L 137.18359 86.373047 L 137.18359 87.121094 L 136.23242 87.121094 L 136.23242 86.373047 z M 141.94727 86.373047 C 143.58361 87.331547 145.75861 87.867324 146.70898 89.365234 C 144.26656 89.537114 144.55574 87.565891 141.94727 87.869141 C 142.31242 90.449321 146.89859 89.715522 147.18555 92.357422 C 144.98335 91.343842 143.51498 89.753634 140.51758 89.365234 C 140.49908 87.978754 141.24961 87.197027 141.94727 86.373047 z M 139.56445 89.740234 C 138.99858 91.539814 135.73681 91.220392 134.32617 92.357422 C 134.94887 90.602802 136.72464 89.753534 139.56445 89.740234 z M 148.13672 90.113281 C 148.58692 90.757451 149.89811 90.726095 149.56641 91.984375 C 148.62572 91.725115 148.29592 90.985671 148.13672 90.113281 z M 137.32812 92.845703 C 137.43744 92.867103 137.49687 92.857803 137.32812 92.845703 z "
     id="path3961" /><path
     style="clip-rule:evenodd;fill-rule:evenodd"
     inkscape:connector-curvature="0"
     id="path3965"
     d="m 175.76072,45.602175 c 1.48843,-0.11428 -1.21072,1.08068 0.4768,1.12216 -0.80285,1.31398 -1.40378,-0.87178 -0.4768,-1.12216 z" /><path
     style="clip-rule:evenodd;fill-rule:evenodd"
     inkscape:connector-curvature="0"
     id="path3967"
     d="m 175.28514,52.709275 c -2.05711,0.37954 -1.51381,2.80112 -3.81033,2.99295 0.96488,-0.50711 0.56264,-2.13258 1.42918,-2.99295 0.29099,-0.28837 2.44886,-0.0525 1.42877,-1.87016 1.94909,-0.40866 -0.0645,2.29465 2.38115,1.49632 -1.82173,3.58742 -4.23472,8.43786 -8.57263,7.85542 0.13179,-1.25353 2.06597,-2.55232 2.85754,-1.12216 1.88703,-1.75968 3.18642,-3.9812 4.28632,-6.35942 z" /><path
     style="clip-rule:evenodd;fill-rule:evenodd"
     inkscape:connector-curvature="0"
     id="path3969"
     d="m 150.51922,65.427175 c 0.40465,-0.55491 1.19944,-0.80435 2.38155,-0.748 -0.32243,0.86891 -1.58273,1.00124 -1.90516,1.87016 -1.48802,0.11459 1.21073,-1.0807 -0.47639,-1.12216 z" /><path
     style="clip-rule:evenodd;fill-rule:evenodd"
     inkscape:connector-curvature="0"
     id="path3971"
     d="m 149.09044,65.801325 c 0.9008,0.0326 -0.11486,1.60173 -1.42837,1.12248 -0.74078,-1.32981 1.6174,-0.22634 1.42837,-1.12248 z" /><path
     style="fill:#ff0000;stroke:#ff0000;stroke-width:0.3571842"
     id="path3385"
     d="m 191.17733,6.2689951 c -1.38407,0.87376 -2.81123,1.69996 -4.48056,2.22173 -0.63518,0.0949 -1.43952,0.4747 -1.98301,0.13406 -0.34384,-0.39474 -0.16037,-0.79991 0.27702,-1.08204 1.43636,-0.83248 2.28146,-0.97011 3.848,-1.00053 0.63721,-0.0357 1.39214,0.0859 1.47534,0.66617 -0.31729,0.57854 -2.30324,1.19722 -2.44422,1.26099 -0.48947,0.22138 0.98108,-0.4399 1.4757,-0.65411 0.0855,-0.0371 -0.16541,0.0816 -0.2481,0.12246 -0.92707,0.46831 -0.18158,0.0964 -2.28457,1.05378 0,0 1.55183,-0.98617 1.55183,-0.98617 l 0,0 c -1.49845,0.68591 -1.85335,0.88024 -1.13189,0.49883 1.11017,-0.519 3.98863,-1.82422 0.73385,-0.34165 -0.13733,0.0625 0.5026,-0.25987 0.42595,-0.16733 0.0446,-0.0243 0.0892,-0.0486 0.13387,-0.0729 0.13129,-0.48156 -0.93912,-0.47669 -1.29699,-0.45596 -0.38444,0.0108 -0.76976,0.0195 -1.15115,0.063 -0.77899,0.0889 -1.85432,0.57839 0.77492,-0.55953 -0.38488,0.16114 -0.73488,0.46052 -0.44985,0.80814 0.53372,0.22514 1.3165,-0.19213 1.85445,-0.25492 0.73788,-0.25685 0.9989,-0.36399 -0.79824,0.42403 -0.16464,0.0722 0.32023,-0.15671 0.47421,-0.24218 0.55895,-0.31029 0.4075,-0.26079 0.94883,-0.59372 0.14473,-0.089 0.29665,-0.17059 0.44496,-0.25589 0,0 1.84965,-0.58635 1.84965,-0.58635 z"
     inkscape:connector-curvature="0" /></svg>