<?xml version="1.0" encoding="UTF-8" standalone="no"?>
<!-- Created with Inkscape (http://www.inkscape.org/) -->

<svg
   xmlns:i="http://ns.adobe.com/AdobeIllustrator/10.0/"
   xmlns:dc="http://purl.org/dc/elements/1.1/"
   xmlns:cc="http://creativecommons.org/ns#"
   xmlns:rdf="http://www.w3.org/1999/02/22-rdf-syntax-ns#"
   xmlns:svg="http://www.w3.org/2000/svg"
   xmlns="http://www.w3.org/2000/svg"
   xmlns:sodipodi="http://sodipodi.sourceforge.net/DTD/sodipodi-0.dtd"
   xmlns:inkscape="http://www.inkscape.org/namespaces/inkscape"
   width="150"
   height="100"
   id="svg2162"
   sodipodi:version="0.32"
   inkscape:version="0.91 r13725"
   sodipodi:docname="fishmex.svg"
   inkscape:output_extension="org.inkscape.output.svg.inkscape"
   inkscape:export-filename="/home/dan/Desktop/Pages DIZ/OpenClipart.Projects/Ancient Mexico Motifs/Copy (7) of ANCIENT 1.png"
   inkscape:export-xdpi="90"
   inkscape:export-ydpi="90"
   version="1.1">
  <defs
     id="defs2164" />
  <sodipodi:namedview
     id="base"
     pagecolor="#ffffff"
     bordercolor="#666666"
     borderopacity="1.0"
     gridtolerance="10000"
     guidetolerance="10"
     objecttolerance="10"
     inkscape:pageopacity="0.0"
     inkscape:pageshadow="2"
     inkscape:zoom="1"
     inkscape:cx="249.50923"
     inkscape:cy="34.285714"
     inkscape:document-units="px"
     inkscape:current-layer="layer1"
     inkscape:window-width="823"
     inkscape:window-height="599"
     inkscape:window-x="26"
     inkscape:window-y="0"
     showgrid="false"
     showborder="true"
     inkscape:window-maximized="1" />
  <metadata
     id="metadata2167">
    <rdf:RDF>
      <cc:Work
         rdf:about="">
        <dc:format>image/svg+xml</dc:format>
        <dc:type
           rdf:resource="http://purl.org/dc/dcmitype/StillImage" />
        <dc:title></dc:title>
      </cc:Work>
    </rdf:RDF>
  </metadata>
  <g
     inkscape:label="Layer 1"
     inkscape:groupmode="layer"
     id="layer1"
     transform="translate(0,-952.36218)">
    <g
       id="Layer_1"
       i:layer="yes"
       i:dimmedPercent="50"
       i:rgbTrio="#4F008000FFFF"
       transform="matrix(0.52050976,0,0,0.55506311,5.028044,957.57696)">
      <g
         id="g2163"
         i:knockout="Off">
        <path
           i:knockout="Off"
           d="m 108.176,161.185 c -1.181,-0.477 -2.429,-1.322 -2.773,-1.88 -0.395,-0.638 -4.411,-0.804 -10.852,-0.448 -12.166,0.672 -17.95,-0.563 -20.44,-4.364 -2.167,-3.308 -2.351,-14.516 -0.369,-22.598 1.908,-7.783 0.723,-8.845 -5.021,-4.493 -8.367,6.338 -25.417,16.598 -30.268,18.213 -7.099,2.362 -11.023,0.625 -14.653,-6.486 -0.996,-1.951 -4.519,-6.29 -7.827,-9.641 -4.64,-4.696 -6.152,-6.975 -6.606,-9.951 -0.324,-2.123 -1.075,-5.21 -1.669,-6.859 -0.594,-1.65 -1.472,-5.236 -1.951,-7.97 -0.479,-2.734 -1.881,-6.334 -3.113,-8 C -0.05,93.083 -1.104,82.783 0.835,79.158 1.55,77.82 2,73.565 1.916,68.933 1.796,62.324 2.143,60.399 3.989,57.411 c 1.22,-1.974 2.537,-5.941 2.927,-8.817 0.395,-2.906 1.715,-6.587 2.971,-8.287 1.244,-1.682 2.976,-5.211 3.85,-7.843 1.236,-3.727 2.361,-5.172 5.088,-6.534 6.348,-3.171 10.133,-2.38 24.416,5.106 26.404,13.839 30.9,13.688 25.584,-0.857 -1.101,-3.01 -2,-6.421 -2,-7.581 0,-2.606 2.582,-5.034 6.357,-5.977 1.972,-0.492 3.297,-1.766 4.275,-4.108 1.944,-4.652 6.775,-7.521 11.867,-7.048 3.074,0.286 4.653,-0.167 6.826,-1.957 3.774,-3.11 6.985,-2.936 12.328,0.671 4.778,3.225 7.346,3.805 7.346,1.66 0,-3.276 9.326,-4.803 13.326,-2.182 2.074,1.358 2.563,1.261 6.018,-1.197 4.692,-3.338 8.342,-3.29 15.918,0.213 7.835,3.622 12.932,9.837 20.238,24.682 6.098,12.39 8.438,15.286 10.6,13.124 0.875,-0.874 0.178,-2.853 -2.858,-8.119 -6.747,-11.701 -7.63,-17.181 -2.771,-17.181 1.24,0 4.68,0.469 7.643,1.043 2.963,0.573 7.187,1.267 9.387,1.54 7.667,0.953 18.027,3.759 22,5.956 2.199,1.218 6.32,5.082 9.156,8.587 6.845,8.46 13.325,14.883 16.099,15.956 1.241,0.479 5.516,1.133 9.5,1.45 9.56,0.764 10.626,1.148 11.369,4.107 1.085,4.322 -0.627,4.854 -15.925,4.941 -7.811,0.045 -15.104,0.158 -16.207,0.25 -2.8,0.235 -12.74,8.574 -14.197,11.91 -1.709,3.913 -1.576,19.762 0.215,25.668 0.82,2.699 1.49,6.412 1.49,8.25 0,4.581 -2.516,4.423 -9.948,-0.624 -4.386,-2.979 -6.486,-5.266 -8.445,-9.196 -1.434,-2.878 -2.606,-5.988 -2.606,-6.913 0,-2.232 -2.595,-4.296 -4.488,-3.569 -0.832,0.319 -1.512,1.52 -1.512,2.668 0,2.107 5.107,13.196 7.29,15.825 2.847,3.43 9.366,6.271 19.78,8.622 16.502,3.726 19.859,3.372 18.524,-1.948 -0.448,-1.786 -1.872,-2.77 -5.844,-4.034 -7.443,-2.371 -9.119,-4.62 -10.587,-14.204 -1.377,-8.995 -0.447,-13.003 4.754,-20.514 4.736,-6.841 7.748,-7.247 43.332,-5.841 2.639,0.104 2.188,4.394 -0.84,7.992 -3.26,3.875 -5.494,3.897 -7.752,0.077 -0.975,-1.65 -2.171,-3 -2.658,-3 -0.488,0 -1.685,1.35 -2.66,3 -2.26,3.826 -3.941,3.779 -8.073,-0.226 -3.901,-3.781 -5.942,-3.195 -7.77,2.231 -1.462,4.344 -2.533,4.617 -5.894,1.503 -1.508,-1.397 -3.161,-2.282 -3.673,-1.966 -1.945,1.201 -0.804,4.452 2.429,6.918 2.838,2.165 5.032,2.722 14.109,3.582 17.41,1.649 20.04,4.03 19.333,17.509 -0.467,8.89 -2.064,12.329 -5.173,11.137 -2.008,-0.771 -3.949,-8.168 -3.197,-12.181 1.069,-5.698 -2.623,-7.352 -22.554,-10.096 -8.695,-1.197 -7.025,3.569 2.47,7.051 3.785,1.388 5.5,2.792 7.82,6.407 2.554,3.979 2.89,5.274 2.389,9.218 -0.359,2.823 -0.049,6.101 0.806,8.523 0.984,2.789 1.151,5.386 0.573,8.912 -0.449,2.737 -0.85,6.776 -0.891,8.977 -0.148,7.962 -4.644,12.197 -7.227,6.808 -1.934,-4.033 -5.025,-3.717 -6.439,0.659 -1.145,3.54 -3.729,6.017 -4.978,4.769 -0.382,-0.382 -1.063,-3.036 -1.517,-5.897 -1.012,-6.398 -2.865,-8.715 -5.149,-6.431 -1.195,1.194 -1.425,2.924 -1.006,7.55 0.451,4.979 0.263,6.108 -1.105,6.634 -2.585,0.991 -4.322,-1.218 -4.885,-6.21 -0.539,-4.783 -2.761,-8.104 -4.644,-6.94 -0.604,0.373 -1.096,2.801 -1.096,5.396 0,5.643 -2.247,9.412 -5.348,8.971 -1.82,-0.26 -2.308,-1.296 -3.152,-6.701 -1.654,-10.572 -6.656,-11.206 -6.33,-0.802 0.164,5.23 -1.828,8.425 -4.593,7.364 -1.242,-0.477 -1.577,-2.195 -1.577,-8.08 0,-6.52 -0.275,-7.668 -2.155,-8.983 -3.415,-2.393 -5.403,-0.528 -6.753,6.335 -1.277,6.492 -4.408,11.138 -9.162,13.597 -3.29,1.701 -7.531,1.918 -8.45,0.431 -0.404,-0.654 -1.844,-0.287 -3.927,1 -3.99,2.466 -11.174,2.688 -14.378,0.443 -2.074,-1.453 -2.611,-1.453 -6.243,0 -5.22,2.089 -7.746,2.001 -11.696,-0.408 -3.26,-1.987 -3.271,-1.987 -6.985,0.004 -4.029,2.157 -5.592,2.333 -8.898,0.999 z m 25.4,-6.42 c 2.752,-3.498 5.898,-19.099 4.252,-21.082 -1.7,-2.049 -4.245,-1.89 -7.22,0.45 -2.254,1.772 -2.54,2.862 -3.067,11.705 -0.32,5.362 -0.36,10.107 -0.09,10.545 0.988,1.599 4.278,0.731 6.125,-1.618 z m 19.268,-1.337 c 1.884,-2.392 2.121,-3.755 1.817,-10.455 -0.384,-8.504 -1.466,-10.6 -4.603,-8.921 -3.449,1.846 -5.635,15.642 -3.199,20.191 1.439,2.689 3.441,2.415 5.985,-0.815 z m -38.144,0 c 2.358,-1.967 5.595,-15.201 4.646,-19 -0.578,-2.319 -3.744,-3.031 -6.291,-1.414 -2.087,1.324 -5.936,17.889 -4.827,20.775 0.737,1.918 3.955,1.738 6.472,-0.361 z m -18.239,-3 c 0.926,-1.513 2.736,-4.35 4.023,-6.304 4.123,-6.262 2.405,-14.37 -2.401,-11.338 -1.683,1.062 -8.431,18.305 -7.654,19.561 1.091,1.766 4.426,0.705 6.032,-1.919 z m -12.225,-0.154 c 1.548,-1.71 4.032,-10.47 5.291,-18.652 0.522,-3.397 -1.471,-5.83 -4.325,-5.277 -0.944,0.184 -2.767,2.316 -4.048,4.74 -1.855,3.509 -2.33,5.972 -2.33,12.083 0,4.222 0.3,7.977 0.666,8.343 1.183,1.182 2.982,0.714 4.746,-1.237 z m 85.18,-1.596 c 0.9,-1.376 1.84,-5.313 2.086,-8.75 0.365,-5.091 0.068,-6.854 -1.6,-9.5 -2.458,-3.898 -4.462,-4.121 -6.676,-0.741 -1.451,2.215 -1.504,3.476 -0.443,10.75 0.66,4.532 1.375,8.804 1.589,9.491 0.644,2.069 3.3,1.411 5.044,-1.25 z M 52.595,129.01 c 11.532,-7.156 14.763,-10.278 13.645,-13.191 -1.163,-3.032 -4.412,-1.902 -17.421,6.057 -9.816,6.007 -13.994,9.642 -13.994,12.177 -0.001,4.83 3.423,3.858 17.77,-5.043 z m 182.647,2.56 c 3.108,-1.192 1.746,-4.339 -2.846,-6.569 -4.128,-2.006 -5.155,-2.088 -15.211,-1.219 -21.095,1.823 -33.514,-1.237 -38.92,-9.591 -6.026,-9.313 -8.411,-28.57 -5.078,-41.013 1.604,-5.99 1.458,-6.928 -0.789,-5.063 -4.204,3.489 -5.157,19.554 -2.166,36.521 1.933,10.964 2.972,13.466 7.61,18.318 7.544,7.892 12.067,9.02 36.649,9.134 10.543,0.05 19.881,-0.184 20.751,-0.518 z m -89.035,-7.003 c 12.998,-1.555 16.935,-2.477 18.011,-4.219 0.323,-0.523 -0.332,-5.163 -1.457,-10.312 -4.101,-18.762 -4.859,-35.62 -1.862,-41.359 9.203,-17.619 9.086,-17.33 7.911,-19.527 -1.698,-3.172 -6.9,-4.919 -17.774,-5.969 -17.951,-1.733 -34.785,0.055 -52.211,5.548 -11.104,3.499 -15.012,5.558 -18.848,9.927 -5.853,6.666 -8.263,16.629 -7.598,31.404 0.465,10.317 1.68,14.154 6.588,20.806 5.115,6.931 8.992,9.684 17.357,12.321 12.389,3.908 25.688,4.276 49.883,1.38 z m -45.922,-9.352 c -8.943,-2.317 -16.668,-6.898 -19.176,-11.371 -0.668,-1.191 -1.23,-4.271 -1.25,-6.844 -0.029,-3.79 0.427,-5.041 2.4,-6.594 2.251,-1.771 4.933,-1.96 35.239,-2.496 34.364,-0.608 35.695,-0.469 35.15,3.691 -0.151,1.153 0.501,3.204 1.45,4.559 1.02,1.455 1.725,4.323 1.725,7.012 0,5.968 -4.209,11.406 -9.729,12.571 -7.205,1.522 -39.33,1.152 -45.809,-0.528 z m 17.622,-6.746 c 3.162,-1.867 6.917,-8.805 6.917,-12.78 0,-4.185 -3.389,-3.194 -5.563,1.626 -1.025,2.274 -3.163,5.435 -4.75,7.021 -1.67,1.669 -2.646,3.508 -2.318,4.363 0.739,1.924 2.165,1.866 5.714,-0.23 z m 13.896,-0.073 c 2.842,-2.301 5.393,-11.656 3.925,-14.397 -0.832,-1.555 -1.333,-1.709 -2.474,-0.763 -0.787,0.653 -1.432,1.92 -1.434,2.814 -0.002,0.896 -1.351,4.328 -2.996,7.628 -1.646,3.3 -2.994,6.112 -2.996,6.25 -0.015,0.993 4.188,-0.085 5.975,-1.532 z m 13.986,-2.153 c 2.518,-4.706 -0.244,-16.08 -2.932,-12.065 -0.551,0.825 -1.01,3.601 -1.019,6.168 -0.009,2.567 -0.288,5.38 -0.622,6.25 -0.907,2.365 3.292,2.042 4.573,-0.353 z m -41.708,-1.595 c 5.812,-3.949 8.388,-10.471 4.136,-10.471 -1.97,0 -11.393,9.473 -11.393,11.452 0,2.294 3.045,1.882 7.257,-0.981 z m -11.71,-6.117 c 5.02,-5.415 1.735,-7.742 -4.478,-3.174 -3.304,2.43 -3.901,3.318 -2.979,4.43 1.787,2.153 4.763,1.652 7.457,-1.256 z M 84.686,81.299 c -1.45,-1.149 -2.926,-3.24 -3.278,-4.646 -0.78,-3.109 2.136,-10.051 5.53,-13.163 4.38,-4.014 30.163,-11.312 34.784,-9.845 0.992,0.314 4.805,-0.123 8.472,-0.974 4.617,-1.071 8.694,-1.339 13.264,-0.87 5.782,0.592 7.074,1.129 10.451,4.342 l 3.855,3.667 -0.39,8.317 c -0.277,5.922 -0.854,8.783 -2.005,9.934 -1.301,1.301 -5.854,1.862 -23.33,2.876 -46.659,2.708 -44.414,2.69 -47.353,0.362 z m 17.477,-5.563 c 0.358,-0.937 -1.066,-2.514 -4.064,-4.5 -5.275,-3.494 -5.292,-3.498 -7.638,-1.782 -2.471,1.806 -1.172,4.285 3.19,6.096 4.692,1.947 7.81,2.015 8.512,0.186 z m 11.661,-1.593 c 0,-1.298 -2.74,-5.753 -5.359,-8.715 -1.836,-2.077 -6.641,-3.185 -6.641,-1.531 0,0.982 10.238,11.281 11.215,11.281 0.432,0 0.785,-0.466 0.785,-1.035 z m 11,0.088 c 0,-0.521 -1.598,-3.671 -3.549,-7 -2.81,-4.795 -4.058,-6.054 -6,-6.054 -3.088,0 -3.071,0.783 0.117,5.61 3.751,5.679 9.432,10.162 9.432,7.444 z m 12.789,-1.803 c -0.207,-0.413 -1.311,-2.775 -2.453,-5.25 -2.458,-5.325 -5.662,-8.473 -7.793,-7.655 -1.281,0.491 -1.335,1.043 -0.331,3.371 2.063,4.785 6.851,10.284 8.955,10.284 1.1,0 1.829,-0.338 1.622,-0.75 z m 11.194,-3 c -0.023,-3.988 -4.121,-10.75 -6.515,-10.75 -1.456,0 -2.045,0.782 -2.263,3.005 -0.224,2.272 0.541,3.92 3.135,6.75 4.076,4.45 5.666,4.73 5.643,0.995 z M 34.668,120.997 c 16.667,-9 19.977,-11.04 23.036,-14.196 6.03,-6.221 1.562,-7.403 -10.104,-2.673 -21.462,8.701 -25.359,10.823 -26.791,14.591 -0.669,1.759 -0.637,3.24 0.102,4.619 1.419,2.653 5.929,1.887 13.757,-2.341 z m 169.954,-5.925 c -0.202,-0.607 -2.152,-1.708 -4.333,-2.446 -4.924,-1.665 -11.475,-8.66 -14.909,-15.921 -3.289,-6.953 -3.552,-15.992 -0.573,-19.778 2.582,-3.283 8.319,-4.437 11.549,-2.32 2.285,1.497 5.465,7.414 6.756,12.571 0.344,1.375 1.306,3.399 2.137,4.5 1.38,1.825 1.515,1.056 1.544,-8.798 0.03,-10.265 -0.093,-10.913 -2.478,-13.124 -3.182,-2.948 -9.42,-3.979 -14.629,-2.419 -7.938,2.379 -12.376,13.367 -10.799,26.739 0.953,8.092 7.239,18.181 12.752,20.469 4.361,1.81 13.535,2.183 12.983,0.527 z M 27.063,105.77 c 4.543,-1.874 12.536,-4.846 17.762,-6.604 11.525,-3.878 15.255,-5.726 14.728,-7.297 -0.488,-1.454 -3.224,-1.602 -7.228,-0.389 -1.65,0.499 -4.351,1.064 -6,1.255 -1.65,0.19 -8.532,1.453 -15.293,2.807 -16.041,3.211 -19.873,5.684 -17.36,11.199 1.476,3.244 3.531,3.095 13.391,-0.971 z m 7.974,-18.093 c 18.916,-2.674 22.787,-3.794 22.787,-6.593 0,-2.61 -2.428,-2.994 -15.365,-2.43 -20.645,0.9 -29.893,2.259 -31.918,4.688 -2.16,2.591 -1.83,3.942 1.361,5.571 3.184,1.624 2.714,1.65 23.135,-1.236 z m 21.58,-16.331 c -0.321,-1.671 -7.906,-4.081 -30.663,-9.744 -14.302,-3.56 -18.13,-2.466 -18.13,5.18 0,5.371 -0.147,5.325 18,5.652 33.431,0.603 31.135,0.684 30.793,-1.088 z m 3.207,-9.61 c 0,-1.908 -0.603,-2.237 -14,-7.664 -11.914,-4.826 -25.918,-8.524 -28.512,-7.529 -0.869,0.334 -1.488,1.844 -1.488,3.628 0,3.528 0.582,3.84 14.5,7.741 17.627,4.942 29.5,6.481 29.5,3.824 z m 152.348,-2.489 c 3.737,-1.703 4.385,-2.501 5.472,-6.75 1.439,-5.625 0.686,-10.678 -2.175,-14.569 -5.553,-7.555 -22.652,0.922 -22.641,11.223 0.004,4.226 3.145,9.749 6.252,10.998 3.692,1.484 8.595,1.146 13.092,-0.902 z m -8.119,-7.333 c -3.979,-1.859 -4.415,-9.399 -0.623,-10.792 1.225,-0.45 3.106,-0.273 4.5,0.421 1.904,0.949 2.395,1.981 2.395,5.042 -10e-4,4.729 -2.681,7.007 -6.272,5.329 z M 71.324,53.728 c 0,-0.522 -2.926,-1.987 -6.5,-3.256 C 61.249,49.203 55.76,46.369 52.627,44.174 44.178,38.256 32.128,32.178 28.844,32.178 c -3.174,0 -4.634,2.49 -3.52,6.001 0.843,2.656 1.932,3.172 19.994,9.481 8.521,2.977 16.284,5.884 17.25,6.46 2.101,1.254 8.756,0.956 8.756,-0.392 z m 19.5,-9.474 c 0,-1.058 -1.132,-3.268 -2.514,-4.91 -1.383,-1.644 -3.176,-4.572 -3.985,-6.509 -1.851,-4.428 -3.267,-5.321 -5.266,-3.322 -1.429,1.43 -1.329,1.922 1.097,5.423 1.467,2.117 2.668,4.327 2.668,4.911 0,0.583 0.932,2.247 2.072,3.696 2.46,3.128 5.928,3.544 5.928,0.711 z m 15.487,-5.056 c 0.904,-1.463 -1.003,-4.424 -3.82,-5.932 -1.48,-0.792 -3.19,-3.204 -4.226,-5.96 -2.52,-6.709 -5.188,-10.129 -7.901,-10.129 -3.144,0 -3.832,2.361 -1.983,6.806 4.309,10.366 15.211,19.615 17.93,15.215 z m 14.955,-3.354 c 1.607,-1.176 1.681,-1.766 0.615,-4.991 -1.494,-4.528 -9.102,-15.003 -12.525,-17.246 -2.102,-1.377 -2.812,-1.441 -4.102,-0.371 -2.011,1.669 -1.272,4.682 3.051,12.442 3.718,6.672 6.271,9.898 8.52,10.765 2.259,0.87 2.472,0.84 4.441,-0.599 z m 40.518,-0.118 c 1.731,-2.087 0.621,-4.769 -6.438,-15.551 -6.905,-10.546 -8.591,-12.321 -11.225,-11.819 -3.171,0.604 -2.544,4.539 2.284,14.332 6.154,12.478 11.841,17.3 15.379,13.038 z m -19.96,-1.604 c 0,-1.131 -2.494,-6.294 -5.543,-11.474 -7.779,-13.218 -11.516,-15.391 -11.634,-6.766 -0.103,7.444 4.652,15.069 11.677,18.722 4.039,2.102 5.5,1.973 5.5,-0.482 z m 110.508,99.306 c 0.967,-12.677 1.279,-13.832 4.084,-15.11 4.79,-2.183 7.21,2.334 4.844,9.041 -1.763,4.997 -7.241,13.819 -8.582,13.819 -0.553,0 -0.696,-3.175 -0.346,-7.75 z"
           id="path7"
           inkscape:connector-curvature="0" />
      </g>
    </g>
  </g>
</svg>
