<?xml version="1.0" encoding="UTF-8" standalone="no"?>
<!-- Created with Inkscape (http://www.inkscape.org/) -->

<svg
   xmlns:dc="http://purl.org/dc/elements/1.1/"
   xmlns:cc="http://creativecommons.org/ns#"
   xmlns:rdf="http://www.w3.org/1999/02/22-rdf-syntax-ns#"
   xmlns:svg="http://www.w3.org/2000/svg"
   xmlns="http://www.w3.org/2000/svg"
   xmlns:xlink="http://www.w3.org/1999/xlink"
   xmlns:sodipodi="http://sodipodi.sourceforge.net/DTD/sodipodi-0.dtd"
   xmlns:inkscape="http://www.inkscape.org/namespaces/inkscape"
   width="50"
   height="100"
   id="svg2"
   sodipodi:version="0.32"
   inkscape:version="0.91 r13725"
   sodipodi:docname="tree1.svg"
   inkscape:output_extension="org.inkscape.output.svg.inkscape"
   version="1.0">
  <defs
     id="defs4">
    <linearGradient
       inkscape:collect="always"
       id="linearGradient3549">
      <stop
         style="stop-color:#55d400;stop-opacity:1;"
         offset="0"
         id="stop3551" />
      <stop
         style="stop-color:#00aa00;stop-opacity:1"
         offset="1"
         id="stop3553" />
    </linearGradient>
    <linearGradient
       inkscape:collect="always"
       id="linearGradient3541">
      <stop
         style="stop-color:#338000;stop-opacity:1;"
         offset="0"
         id="stop3543" />
      <stop
         style="stop-color:#55d400;stop-opacity:1"
         offset="1"
         id="stop3545" />
    </linearGradient>
    <linearGradient
       inkscape:collect="always"
       id="linearGradient3525">
      <stop
         style="stop-color:#207b04;stop-opacity:1;"
         offset="0"
         id="stop3527" />
      <stop
         style="stop-color:#55d400;stop-opacity:1"
         offset="1"
         id="stop3529" />
    </linearGradient>
    <linearGradient
       inkscape:collect="always"
       id="linearGradient3427">
      <stop
         style="stop-color:#207b04;stop-opacity:1;"
         offset="0"
         id="stop3429" />
      <stop
         style="stop-color:#00d400;stop-opacity:1"
         offset="1"
         id="stop3431" />
    </linearGradient>
    <linearGradient
       inkscape:collect="always"
       id="linearGradient3403">
      <stop
         style="stop-color:#44b600;stop-opacity:1;"
         offset="0"
         id="stop3405" />
      <stop
         style="stop-color:#99ff55;stop-opacity:1"
         offset="1"
         id="stop3407" />
    </linearGradient>
    <linearGradient
       inkscape:collect="always"
       id="linearGradient3395">
      <stop
         style="stop-color:#44b600;stop-opacity:1;"
         offset="0"
         id="stop3397" />
      <stop
         style="stop-color:#225500;stop-opacity:1"
         offset="1"
         id="stop3399" />
    </linearGradient>
    <inkscape:perspective
       sodipodi:type="inkscape:persp3d"
       inkscape:vp_x="0 : 526.18109 : 1"
       inkscape:vp_y="0 : 1000 : 0"
       inkscape:vp_z="744.09448 : 526.18109 : 1"
       inkscape:persp3d-origin="372.04724 : 350.78739 : 1"
       id="perspective10" />
    <inkscape:perspective
       id="perspective2552"
       inkscape:persp3d-origin="372.04724 : 350.78739 : 1"
       inkscape:vp_z="744.09448 : 526.18109 : 1"
       inkscape:vp_y="0 : 1000 : 0"
       inkscape:vp_x="0 : 526.18109 : 1"
       sodipodi:type="inkscape:persp3d" />
    <linearGradient
       inkscape:collect="always"
       xlink:href="#linearGradient3549"
       id="linearGradient3777"
       gradientUnits="userSpaceOnUse"
       gradientTransform="translate(-128.73326,-171.81949)"
       x1="590.07123"
       y1="1193.7061"
       x2="545.93408"
       y2="1236.2668" />
    <linearGradient
       inkscape:collect="always"
       xlink:href="#linearGradient3395"
       id="linearGradient3779"
       gradientUnits="userSpaceOnUse"
       gradientTransform="matrix(0.3837315,-0.9234447,0.9234447,0.3837315,-884.7589,1072.0744)"
       x1="440.84573"
       y1="1060.2438"
       x2="417.44836"
       y2="1156.666" />
    <linearGradient
       inkscape:collect="always"
       xlink:href="#linearGradient3427"
       id="linearGradient3781"
       gradientUnits="userSpaceOnUse"
       x1="482.35562"
       y1="1237.3177"
       x2="427.18423"
       y2="1203.1639" />
    <linearGradient
       inkscape:collect="always"
       xlink:href="#linearGradient3541"
       id="linearGradient3783"
       gradientUnits="userSpaceOnUse"
       gradientTransform="translate(78.290838,24.170326)"
       x1="209.12587"
       y1="1131.7039"
       x2="183.37921"
       y2="1089.6686" />
    <linearGradient
       inkscape:collect="always"
       xlink:href="#linearGradient3395"
       id="linearGradient3785"
       gradientUnits="userSpaceOnUse"
       gradientTransform="matrix(0.9945447,0.1043105,-0.1043105,0.9945447,115.26302,-44.721494)"
       x1="440.84573"
       y1="1060.2438"
       x2="417.44836"
       y2="1156.666" />
    <linearGradient
       inkscape:collect="always"
       xlink:href="#linearGradient3403"
       id="linearGradient3787"
       gradientUnits="userSpaceOnUse"
       gradientTransform="matrix(0.7107842,0.7034101,-0.7034101,0.7107842,882.84108,50.248129)"
       x1="385.1489"
       y1="1035.0226"
       x2="316.21552"
       y2="1238.3687" />
    <linearGradient
       inkscape:collect="always"
       xlink:href="#linearGradient3525"
       id="linearGradient3789"
       gradientUnits="userSpaceOnUse"
       gradientTransform="translate(-11.559721,-7.881628)"
       x1="362.5549"
       y1="1162.705"
       x2="343.63898"
       y2="1124.3478" />
    <linearGradient
       inkscape:collect="always"
       xlink:href="#linearGradient3541"
       id="linearGradient3791"
       gradientUnits="userSpaceOnUse"
       gradientTransform="matrix(0.5286379,0.3375509,-0.2780809,0.6416917,672.01884,369.94541)"
       x1="209.12587"
       y1="1131.7039"
       x2="183.37921"
       y2="1089.6686" />
  </defs>
  <sodipodi:namedview
     id="base"
     pagecolor="#ffffff"
     bordercolor="#666666"
     borderopacity="1.0"
     inkscape:pageopacity="0.0"
     inkscape:pageshadow="2"
     inkscape:zoom="1"
     inkscape:cx="282.15639"
     inkscape:cy="230.00286"
     inkscape:document-units="px"
     inkscape:current-layer="layer1"
     showgrid="false"
     inkscape:window-width="1600"
     inkscape:window-height="847"
     inkscape:window-x="-8"
     inkscape:window-y="-8"
     showguides="true"
     inkscape:guide-bbox="true"
     inkscape:window-maximized="1"
     borderlayer="false"
     showborder="true" />
  <metadata
     id="metadata7">
    <rdf:RDF>
      <cc:Work
         rdf:about="">
        <dc:format>image/svg+xml</dc:format>
        <dc:type
           rdf:resource="http://purl.org/dc/dcmitype/StillImage" />
        <dc:title></dc:title>
      </cc:Work>
    </rdf:RDF>
  </metadata>
  <g
     inkscape:label="Capa 1"
     inkscape:groupmode="layer"
     id="layer1"
     transform="translate(-82.552214,-342.12236)">
    <g
       transform="matrix(-0.13974252,0,0,0.36060231,160.46739,-27.267721)"
       id="g3870"
       inkscape:export-filename="/home/multimedia14/Desktop/tree.png"
       inkscape:export-xdpi="90"
       inkscape:export-ydpi="90">
      <path
         style="fill:url(#linearGradient3777);fill-opacity:1;fill-rule:evenodd;stroke:#000000;stroke-width:0.7868737px;stroke-linecap:butt;stroke-linejoin:miter;stroke-opacity:0"
         d="m 429.38597,1072.4698 c 1.5823,3.1792 2.36175,8.2009 6.30314,5.9666 l -0.63032,-9.2211 6.30315,2.1697 0.31515,-10.306 c 7.43974,-6.9802 0.7865,-7.5026 -0.94547,-9.221 l -2.52125,-3.2545 -3.15158,2.1696 c 0.89218,-5.5925 1.87891,-11.3273 -3.78188,-7.0514 2.87469,-10.71 -1.05568,-4.6881 -3.78188,-1.6272 2.13163,-6.6544 3.60873,-10.8929 -2.52127,-7.5939 -1.83425,-7.1748 -2.75666,-1.7948 -3.78188,2.1698 -7.34792,-10.8536 -4.70745,0.6411 -4.09705,7.5938 -4.53574,-3.6512 -7.86449,-5.0173 -4.09704,7.0514 -10.34951,-6.0044 -4.53321,2.83 -3.15156,7.5937 -1.07592,5.2964 -16.80292,6.3901 0,16.815 -1.0068,15.5418 3.03233,9.3724 6.93345,3.7969 -2.43805,13.3145 0.50248,9.2721 4.72736,1.0849 3.10824,3.9562 5.34978,5.675 3.46672,-3.2546 4.50032,7.0631 4.90513,2.3783 4.41221,-4.8817 z"
         id="path3872"
         sodipodi:nodetypes="cccccccccccccccccccc"
         inkscape:connector-curvature="0" />
      <path
         style="fill:url(#linearGradient3779);fill-opacity:1;fill-rule:evenodd;stroke:#000000;stroke-width:1px;stroke-linecap:butt;stroke-linejoin:miter;stroke-opacity:0"
         d="m 333.9664,1116.6584 c 11.79604,-19.0849 -5.06031,-8.0076 -5.06031,-8.0076 4.78481,-2.87 8.93201,-5.7705 1.90671,-9.204 12.56489,-2.9741 7.45884,-11.1424 3.83649,-15.0435 l -7.11841,3.0848 c 7.32477,-16.5209 -0.65623,-13.604 -9.1628,-7.8976 7.05389,-5.9298 7.38645,-8.99 -1.69596,-8.0305 3.13274,-2.3806 9.53103,-4.4997 -1.69588,-8.0305 7.59758,-6.0908 5.66303,-9.3148 -3.10787,-10.4827 4.77031,-5.82 6.03837,-9.8952 -3.08478,-7.1185 l -6.72874,0.046 c -2.36935,-5.4075 -4.75968,-10.691 -10.00621,0.8068 -1.92886,-10.229 -2.50373,-6.9263 -6.49028,-1.1046 -11.26343,-11.3625 -10.11863,-1.8216 -12.0459,2.544 -3.89912,1.0346 3.73655,12.0848 2.13152,11.7203 -11.40293,-2.5888 -11.09962,10.3226 -6.48588,11.6151 -1.51576,-0.5994 -13.06854,4.6026 -5.0098,11.4407 11.61324,9.8543 -1.51179,13.0772 -0.40795,12.3941 l -6.11913,5.2117 -0.60498,7.5539 10.18029,0.6691 c -9.62938,3.3148 -6.30396,10.2868 3.08482,7.1184 5.33538,-1.8006 -9.96377,0.4596 -2.01673,5.1015 12.88173,7.5244 1.3628,10.9979 5.53698,5.7067 2.59359,5.0451 5.9004,4.5258 9.52946,1.4942 -0.60894,7.8849 -0.17954,13.0883 6.01374,3.4056 0.92302,4.7769 0.56693,12.0688 7.66385,4.7073 1.93664,10.1699 5.96104,4.0526 9.919,-1.5447 -3.66781,12.1385 0.48689,10.8036 6.6875,5.945 4.54721,6.0391 7.93139,7.9425 7.35683,-4.2353 l 7.55384,0.6049 c 3.66914,1.7128 8.60571,6.7675 6.76993,-6.0366 11.17709,-0.8927 10.7911,-5.6063 6.48575,-11.615 2.30724,-11.8531 -3.3024,-6.1173 -7.8151,-2.8189 z"
         id="path3874"
         sodipodi:nodetypes="ccccccccccccccscsccccssccccccccccc"
         inkscape:connector-curvature="0" />
      <path
         style="fill:#4bbe01;fill-opacity:1;fill-rule:evenodd;stroke:#000000;stroke-width:1px;stroke-linecap:butt;stroke-linejoin:miter;stroke-opacity:0"
         d="m 303.70541,1194.2315 c 2.63808,3.0798 3.93761,7.9443 10.50883,5.7798 l -1.05088,-8.9325 10.50884,2.1018 0.52544,-9.9834 c 12.4038,-6.7618 1.31128,-7.2678 -1.57633,-8.9325 l -4.20353,-3.1527 -5.25442,2.1018 c 1.48747,-5.4175 3.13259,-10.9729 -6.3053,-6.8307 4.79279,-10.3748 -1.76006,-4.5416 -6.3053,-1.5764 3.55394,-6.446 6.01662,-10.5519 -4.20354,-7.3561 -3.05813,-6.9503 -4.59602,-1.7388 -6.3053,2.1017 -12.25074,-10.5139 -7.84844,0.6212 -6.83075,7.3562 -7.56217,-3.5369 -13.11199,-4.8601 -6.83074,6.8308 -17.25509,-5.8166 -7.55795,2.7414 -5.25442,7.3561 -1.79379,5.1306 -28.01445,6.1901 0,16.2887 -1.67856,15.0556 5.05563,9.0792 11.55972,3.6781 -4.06481,12.8979 0.83775,8.9819 7.88163,1.0509 5.18218,3.8325 8.91937,5.4974 5.77986,-3.1526 7.5031,6.842 8.17801,2.3038 7.35619,-4.729 z"
         id="path3876"
         sodipodi:nodetypes="cccccccccccccccccccc"
         inkscape:connector-curvature="0" />
      <path
         style="fill:#44b600;fill-opacity:1;fill-rule:evenodd;stroke:#000000;stroke-width:1px;stroke-linecap:butt;stroke-linejoin:miter;stroke-opacity:0"
         d="m 229.09266,1148.518 c 2.55918,22.2897 8.93252,3.1527 8.93252,3.1527 -1.97901,5.2167 -3.43869,10.0626 4.20353,8.407 -8.02273,10.1172 1.0452,13.3678 6.3053,14.187 l 3.67809,-6.8308 c 4.48164,17.5074 8.94098,10.2742 12.08517,0.5255 -1.8653,9.0244 -0.23106,11.633 6.3053,5.2544 -0.98505,3.8093 -4.69593,9.4359 6.3053,5.2544 -2.19259,9.4876 1.323,10.8207 8.93252,6.3053 -0.14055,7.5238 1.3879,11.5087 6.83074,3.6781 l 5.25442,-4.2035 c 5.20932,2.778 10.35842,5.4457 7.35619,-6.8308 7.84988,6.8362 6.25563,3.8872 5.77986,-3.1526 15.88042,1.9447 9.07239,-4.8369 7.88162,-9.458 2.42048,-3.2273 -10.41837,-7.1736 -8.93251,-7.8816 10.55593,-5.0299 2.32103,-14.9789 -2.10177,-13.1361 1.56123,-0.4683 7.40952,-11.7077 -3.15265,-12.0851 -15.22103,-0.544 -6.91257,-11.2033 -7.35618,-9.9834 l 1.57633,-7.8816 -4.20354,-6.3053 -8.40707,5.7798 c 5.50706,-8.5665 -1.42195,-11.9806 -6.83075,-3.6781 -3.07365,4.7181 7.53791,-6.532 -1.57632,-5.2544 -14.77388,2.071 -7.88163,-7.7903 -7.88163,-1.0509 -5.16093,-2.3546 -7.43558,0.1012 -8.40707,4.729 -4.40552,-6.5677 -7.96536,-10.3869 -6.83074,1.0509 -3.68331,-3.1787 -7.91996,-9.1241 -8.93252,1.0509 -7.81921,-6.7851 -7.19008,0.5103 -6.83074,7.3562 -4.63844,-11.8017 -7.0736,-8.1805 -8.93251,-0.5255 -7.31036,-1.9251 -11.14626,-1.3234 -3.15265,7.8816 l -6.30531,4.2036 c -3.9415,0.9278 -10.94792,0.017 -1.57632,8.9325 -8.22241,7.6234 -4.99991,11.085 2.10177,13.136 5.52989,10.735 6.38163,2.7574 7.88162,-2.6272 z"
         id="path3878"
         sodipodi:nodetypes="ccccccccccccccscsccccssccccccccccc"
         inkscape:connector-curvature="0" />
      <path
         style="fill:#207b04;fill-opacity:1;fill-rule:evenodd;stroke:#000000;stroke-width:1px;stroke-linecap:butt;stroke-linejoin:miter;stroke-opacity:0"
         d="m 420.87895,1107.5336 c 2.63808,3.0797 3.93761,7.9442 10.50883,5.7798 l -1.05088,-8.9325 10.50884,2.1018 0.52544,-9.9834 c 12.4038,-6.7618 1.31128,-7.2678 -1.57633,-8.9325 l -4.20353,-3.1527 -5.25442,2.1018 c 1.48747,-5.4175 3.13259,-10.9729 -6.3053,-6.8307 4.79279,-10.3749 -1.76006,-4.5416 -6.3053,-1.5764 3.55394,-6.4461 6.01662,-10.5519 -4.20354,-7.3562 -3.05813,-6.9502 -4.59602,-1.7387 -6.3053,2.1018 -12.25074,-10.5139 -7.84844,0.6211 -6.83075,7.3562 -7.56217,-3.5369 -13.11199,-4.8602 -6.83074,6.8307 -17.25509,-5.8165 -7.55795,2.7415 -5.25442,7.3562 -1.79379,5.1306 -28.01445,6.1901 0,16.2887 -1.67856,15.0556 5.05563,9.0792 11.55972,3.6781 -4.06481,12.8979 0.83775,8.9819 7.88163,1.0509 5.18218,3.8325 8.91937,5.4974 5.77986,-3.1526 7.5031,6.842 8.17801,2.3038 7.35619,-4.729 z"
         id="path3880"
         sodipodi:nodetypes="cccccccccccccccccccc"
         inkscape:connector-curvature="0" />
      <path
         sodipodi:nodetypes="cccccccccccccccccccc"
         id="path3882"
         d="m 449.77825,1209.4693 c 2.63808,3.0797 3.93761,7.9442 10.50883,5.7798 l -1.05088,-8.9325 10.50884,2.1018 0.52544,-9.9834 c 12.4038,-6.7618 1.31128,-7.2678 -1.57633,-8.9325 l -4.20353,-3.1527 -5.25442,2.1018 c 1.48747,-5.4175 3.13259,-10.9729 -6.3053,-6.8307 4.79279,-10.3749 -1.76006,-4.5416 -6.3053,-1.5764 3.55394,-6.4461 6.01662,-10.5519 -4.20354,-7.3562 -3.05813,-6.9502 -4.59602,-1.7387 -6.3053,2.1018 -12.25074,-10.5139 -7.84844,0.6211 -6.83075,7.3562 -7.56217,-3.5369 -13.11199,-4.8602 -6.83074,6.8307 -17.25509,-5.8165 -7.55795,2.7415 -5.25442,7.3562 -1.79379,5.1306 -28.01445,6.1901 0,16.2887 -1.67856,15.0556 5.05563,9.0792 11.55972,3.6781 -4.06481,12.8979 0.83775,8.9819 7.88163,1.0509 5.18218,3.8325 8.91937,5.4974 5.77986,-3.1526 7.5031,6.842 8.17801,2.3038 7.35619,-4.729 z"
         style="fill:url(#linearGradient3781);fill-opacity:1;fill-rule:evenodd;stroke:#000000;stroke-width:1px;stroke-linecap:butt;stroke-linejoin:miter;stroke-opacity:0"
         inkscape:connector-curvature="0" />
      <path
         style="fill:#207b04;fill-opacity:1;fill-rule:evenodd;stroke:#000000;stroke-width:1px;stroke-linecap:butt;stroke-linejoin:miter;stroke-opacity:0"
         d="m 349.41886,1167.9594 c 2.63808,3.0797 3.93761,7.9442 10.50883,5.7798 l -1.05088,-8.9325 10.50884,2.1018 0.52544,-9.9834 c 12.4038,-6.7618 1.31128,-7.2678 -1.57633,-8.9325 l -4.20353,-3.1527 -5.25442,2.1018 c 1.48747,-5.4175 3.13259,-10.9729 -6.3053,-6.8307 4.79279,-10.3749 -1.76006,-4.5416 -6.3053,-1.5764 3.55394,-6.4461 6.01662,-10.5519 -4.20354,-7.3562 -3.05813,-6.9502 -4.59602,-1.7387 -6.3053,2.1018 -12.25074,-10.5139 -7.84844,0.6211 -6.83075,7.3562 -7.56217,-3.5369 -13.11199,-4.8602 -6.83074,6.8307 -17.25509,-5.8165 -7.55795,2.7415 -5.25442,7.3562 -1.79379,5.1306 -28.01445,6.1901 0,16.2887 -1.67856,15.0556 5.05563,9.0792 11.55972,3.6781 -4.06481,12.8979 0.83775,8.9819 7.88163,1.0509 5.18218,3.8325 8.91937,5.4974 5.77986,-3.1526 7.5031,6.842 8.17801,2.3038 7.35619,-4.729 z"
         id="path3884"
         sodipodi:nodetypes="cccccccccccccccccccc"
         inkscape:connector-curvature="0" />
      <path
         sodipodi:nodetypes="cccccccccccccccccccc"
         id="path3886"
         d="m 281.11141,1190.028 c 2.63808,3.0797 3.93761,7.9442 10.50883,5.7798 l -1.05088,-8.9325 10.50884,2.1018 0.52544,-9.9834 c 12.4038,-6.7618 1.31128,-7.2678 -1.57633,-8.9325 l -4.20353,-3.1527 -5.25442,2.1018 c 1.48747,-5.4175 3.13259,-10.9729 -6.3053,-6.8307 4.79279,-10.3749 -1.76006,-4.5416 -6.3053,-1.5764 3.55394,-6.4461 6.01662,-10.5519 -4.20354,-7.3562 -3.05813,-6.9502 -4.59602,-1.7387 -6.3053,2.1018 -12.25074,-10.5139 -7.84844,0.6211 -6.83075,7.3562 -7.56217,-3.5369 -13.11199,-4.8602 -6.83074,6.8307 -17.25509,-5.8165 -7.55795,2.7415 -5.25442,7.3562 -1.79379,5.1306 -28.01445,6.1901 0,16.2887 -1.67856,15.0556 5.05563,9.0792 11.55972,3.6781 -4.06481,12.8979 0.83775,8.9819 7.88163,1.0509 5.18218,3.8325 8.91937,5.4974 5.77986,-3.1526 7.5031,6.842 8.17801,2.3038 7.35619,-4.729 z"
         style="fill:#71c837;fill-opacity:1;fill-rule:evenodd;stroke:#000000;stroke-width:1px;stroke-linecap:butt;stroke-linejoin:miter;stroke-opacity:0"
         inkscape:connector-curvature="0" />
      <path
         sodipodi:nodetypes="ccccccccccccccscsccccssccccccccccc"
         id="path3888"
         d="m 425.08247,1166.3831 c 2.55918,22.2897 8.93252,3.1527 8.93252,3.1527 -1.97901,5.2167 -3.43869,10.0626 4.20353,8.407 -8.02273,10.1172 1.0452,13.3678 6.3053,14.187 l 3.67809,-6.8308 c 4.48164,17.5074 8.94098,10.2742 12.08517,0.5255 -1.8653,9.0244 -0.23106,11.633 6.3053,5.2544 -0.98505,3.8093 -4.69593,9.4359 6.3053,5.2544 -2.19259,9.4876 1.323,10.8207 8.93252,6.3053 -0.14055,7.5238 1.3879,11.5087 6.83074,3.6781 l 5.25442,-4.2035 c 5.20932,2.778 10.35842,5.4457 7.35619,-6.8308 7.84988,6.8362 6.25563,3.8872 5.77986,-3.1526 15.88042,1.9447 9.07239,-4.8369 7.88162,-9.458 2.42048,-3.2273 -10.41837,-7.1736 -8.93251,-7.8816 10.55593,-5.0299 2.32103,-14.9789 -2.10177,-13.1361 1.56123,-0.4683 7.40952,-11.7077 -3.15265,-12.0851 -15.22103,-0.544 -6.91257,-11.2034 -7.35618,-9.9834 l 1.57633,-7.8817 -4.20354,-6.3053 -8.40707,5.7799 c 5.50706,-8.5666 -1.42195,-11.9807 -6.83075,-3.6781 -3.07365,4.718 7.53791,-6.5321 -1.57632,-5.2544 -14.77388,2.071 -7.88163,-7.7904 -7.88163,-1.0509 -5.16093,-2.3547 -7.43558,0.1012 -8.40707,4.7289 -4.40552,-6.5676 -7.96536,-10.3868 -6.83074,1.0509 -3.68331,-3.1787 -7.91996,-9.1241 -8.93252,1.0509 -7.81921,-6.7851 -7.19008,0.5104 -6.83074,7.3562 -4.63844,-11.8017 -7.0736,-8.1805 -8.93251,-0.5254 -7.31036,-1.9252 -11.14626,-1.3234 -3.15265,7.8816 l -6.30531,4.2036 c -3.9415,0.9278 -10.94792,0.017 -1.57632,8.9325 -8.22241,7.6234 -4.99991,11.085 2.10177,13.136 5.52989,10.735 6.38163,2.7574 7.88162,-2.6272 z"
         style="fill:#44b600;fill-opacity:1;fill-rule:evenodd;stroke:#000000;stroke-width:1px;stroke-linecap:butt;stroke-linejoin:miter;stroke-opacity:0"
         inkscape:connector-curvature="0" />
      <path
         sodipodi:nodetypes="ccccccccccccccscsccccssccccccccccc"
         id="path3890"
         d="m 301.07819,1101.2282 c 2.55918,22.2897 8.93252,3.1527 8.93252,3.1527 -1.97901,5.2167 -3.43869,10.0626 4.20353,8.407 -8.02273,10.1172 1.0452,13.3678 6.3053,14.187 l 3.67809,-6.8308 c 4.48164,17.5074 8.94098,10.2742 12.08517,0.5255 -1.8653,9.0244 -0.23106,11.633 6.3053,5.2544 -0.98505,3.8093 -4.69593,9.4359 6.3053,5.2544 -2.19259,9.4876 1.323,10.8207 8.93252,6.3053 -0.14055,7.5238 1.3879,11.5087 6.83074,3.6781 l 5.25442,-4.2035 c 5.20932,2.778 10.35842,5.4457 7.35619,-6.8308 7.84988,6.8362 6.25563,3.8872 5.77986,-3.1526 15.88042,1.9447 9.07239,-4.8369 7.88162,-9.458 2.42048,-3.2273 -10.41837,-7.1736 -8.93251,-7.8816 10.55593,-5.0299 2.32103,-14.9789 -2.10177,-13.1361 1.56123,-0.4683 7.40952,-11.7077 -3.15265,-12.0851 -15.22103,-0.544 -6.91257,-11.2033 -7.35618,-9.9834 l 1.57633,-7.8816 -4.20354,-6.3053 -8.40707,5.7798 c 5.50706,-8.5665 -1.42195,-11.9806 -6.83075,-3.6781 -3.07365,4.7181 7.53791,-6.532 -1.57632,-5.2544 -14.77388,2.071 -7.88163,-7.7903 -7.88163,-1.0509 -5.16093,-2.3546 -7.43558,0.1012 -8.40707,4.729 -4.40552,-6.5677 -7.96536,-10.3869 -6.83074,1.0509 -3.68331,-3.1787 -7.91996,-9.1241 -8.93252,1.0509 -7.81921,-6.7851 -7.19008,0.5103 -6.83074,7.3562 -4.63844,-11.8017 -7.0736,-8.1805 -8.93251,-0.5255 -7.31036,-1.9251 -11.14626,-1.3234 -3.15265,7.8816 l -6.30531,4.2036 c -3.9415,0.9278 -10.94792,0.017 -1.57632,8.9325 -8.22241,7.6234 -4.99991,11.085 2.10177,13.136 5.52989,10.735 6.38163,2.7574 7.88162,-2.6272 z"
         style="fill:#207b04;fill-opacity:1;fill-rule:evenodd;stroke:#000000;stroke-width:1px;stroke-linecap:butt;stroke-linejoin:miter;stroke-opacity:0"
         inkscape:connector-curvature="0" />
      <path
         style="fill:#207b04;fill-opacity:1;fill-rule:evenodd;stroke:#000000;stroke-width:1px;stroke-linecap:butt;stroke-linejoin:miter;stroke-opacity:0"
         d="m 362.90641,1187.7232 c 11.96143,18.9817 9.41667,-1.0275 9.41667,-1.0275 0.47589,5.5592 1.25925,10.5591 7.43023,5.7567 -2.8488,12.5939 6.73232,11.5959 11.8282,10.0559 l 0.35638,-7.7499 c 11.62273,13.8386 12.50897,5.3876 11.12025,-4.7611 2.22768,8.9419 4.83057,10.5852 7.95905,2.0048 0.76215,3.8601 -0.14539,10.5388 7.95904,2.0048 2.13333,9.5011 5.87944,9.1798 10.78222,1.8139 3.13225,6.8423 6.23594,9.7719 7.74987,0.3565 l 2.91517,-6.0647 c 5.89857,0.2475 11.69508,0.4216 3.67154,-9.3431 10.03637,2.7615 7.32207,0.794 3.84396,-5.345 15.15572,-5.1258 6.08204,-8.2893 3.00715,-11.9387 0.78372,-3.9572 -12.49755,-1.953 -11.46498,-3.2347 7.33559,-9.1059 -4.39612,-14.5062 -7.58428,-10.9295 1.20433,-1.0983 1.60718,-13.7618 -8.07621,-9.527 -13.95468,6.1027 -11.0832,-7.1037 -10.95459,-5.8119 l -1.99318,-7.7867 -6.51988,-3.8624 -5.07392,8.8511 c 1.25306,-10.1066 -6.47103,-10.1825 -7.74987,-0.3564 -0.7267,5.5839 3.96475,-9.1525 -3.69671,-4.0531 -12.41897,8.2659 -10.4783,-3.6078 -7.55909,2.4667 -5.67155,0.1132 -6.65801,3.3119 -5.52911,7.9039 -6.81559,-4.0114 -11.67843,-5.9118 -5.70149,3.9059 -4.69671,-1.2696 -11.09058,-4.7933 -7.59588,4.8163 -9.98659,-2.7286 -6.25954,3.5743 -2.9704,9.589 -9.29264,-8.628 -9.91893,-4.3093 -8.27865,3.3955 -7.42284,1.4314 -10.6196,3.6352 0.57236,8.4695 l -3.86232,6.5199 c -3.15068,2.5435 -9.86032,4.7572 2.44834,8.7338 -4.10896,10.4327 0.29494,12.1569 7.58423,10.9294 9.63407,7.2804 6.94627,-0.2789 5.9659,-5.7819 z"
         id="path3892"
         sodipodi:nodetypes="ccccccccccccccscsccccssccccccccccc"
         inkscape:connector-curvature="0" />
      <path
         sodipodi:nodetypes="cccccccccccccccccccc"
         id="path3894"
         d="m 288.4676,1141.1618 c 2.63808,3.0798 3.93761,7.9443 10.50883,5.7799 l -1.05088,-8.9325 10.50884,2.1017 0.52544,-9.9833 c 12.4038,-6.7619 1.31128,-7.2679 -1.57633,-8.9326 l -4.20353,-3.1526 -5.25442,2.1018 c 1.48747,-5.4175 3.13259,-10.973 -6.3053,-6.8308 4.79279,-10.3748 -1.76006,-4.5416 -6.3053,-1.5763 3.55394,-6.4461 6.01662,-10.552 -4.20354,-7.3562 -3.05813,-6.9503 -4.59602,-1.7387 -6.3053,2.1018 -12.25074,-10.5139 -7.84844,0.6211 -6.83075,7.3561 -7.56217,-3.5368 -13.11199,-4.8601 -6.83074,6.8308 -17.25509,-5.8165 -7.55795,2.7414 -5.25442,7.3562 -1.79379,5.1306 -28.01445,6.19 0,16.2887 -1.67856,15.0555 5.05563,9.0792 11.55972,3.6781 -4.06481,12.8978 0.83775,8.9818 7.88163,1.0509 5.18218,3.8324 8.91937,5.4974 5.77986,-3.1527 7.5031,6.8421 8.17801,2.3038 7.35619,-4.729 z"
         style="fill:#4bbe01;fill-opacity:1;fill-rule:evenodd;stroke:#000000;stroke-width:1px;stroke-linecap:butt;stroke-linejoin:miter;stroke-opacity:0"
         inkscape:connector-curvature="0" />
      <path
         sodipodi:nodetypes="cccccccccccccccccccc"
         id="path3896"
         d="m 362.5549,1114.3643 c 2.63808,3.0798 3.93761,7.9443 10.50883,5.7799 l -1.05088,-8.9325 10.50884,2.1017 0.52544,-9.9833 c 12.4038,-6.7619 1.31128,-7.2679 -1.57633,-8.9326 l -4.20353,-3.1526 -5.25442,2.1018 c 1.48747,-5.4175 3.13259,-10.973 -6.3053,-6.8308 4.79279,-10.3748 -1.76006,-4.5416 -6.3053,-1.5763 3.55394,-6.4461 6.01662,-10.552 -4.20354,-7.3562 -3.05813,-6.9503 -4.59602,-1.7387 -6.3053,2.1018 -12.25074,-10.5139 -7.84844,0.6211 -6.83075,7.3561 -7.56217,-3.5368 -13.11199,-4.8601 -6.83074,6.8308 -17.25509,-5.8165 -7.55795,2.7414 -5.25442,7.3562 -1.79379,5.1306 -28.01445,6.19 0,16.2887 -1.67856,15.0555 5.05563,9.0792 11.55972,3.6781 -4.06481,12.8978 0.83775,8.9818 7.88163,1.0509 5.18218,3.8324 8.91937,5.4974 5.77986,-3.1527 7.5031,6.8421 8.17801,2.3038 7.35619,-4.729 z"
         style="fill:#4bbe01;fill-opacity:1;fill-rule:evenodd;stroke:#000000;stroke-width:1px;stroke-linecap:butt;stroke-linejoin:miter;stroke-opacity:0"
         inkscape:connector-curvature="0" />
      <path
         style="fill:#4bbe01;fill-opacity:1;fill-rule:evenodd;stroke:#000000;stroke-width:1px;stroke-linecap:butt;stroke-linejoin:miter;stroke-opacity:0"
         d="m 419.30263,1190.5534 c 2.63808,3.0797 3.93761,7.9442 10.50883,5.7798 l -1.05088,-8.9325 10.50884,2.1018 0.52544,-9.9834 c 12.4038,-6.7618 1.31128,-7.2679 -1.57633,-8.9325 l -4.20353,-3.1527 -5.25442,2.1018 c 1.48747,-5.4175 3.13259,-10.9729 -6.3053,-6.8308 4.79279,-10.3748 -1.76006,-4.5415 -6.3053,-1.5763 3.55394,-6.4461 6.01662,-10.552 -4.20354,-7.3562 -3.05813,-6.9503 -4.59602,-1.7387 -6.3053,2.1018 -12.25074,-10.5139 -7.84844,0.6211 -6.83075,7.3562 -7.56217,-3.5369 -13.11199,-4.8602 -6.83074,6.8307 -17.25509,-5.8165 -7.55795,2.7415 -5.25442,7.3562 -1.79379,5.1306 -28.01445,6.1901 0,16.2887 -1.67856,15.0555 5.05563,9.0792 11.55972,3.6781 -4.06481,12.8978 0.83775,8.9819 7.88163,1.0509 5.18218,3.8325 8.91937,5.4974 5.77986,-3.1527 7.5031,6.8421 8.17801,2.3039 7.35619,-4.7289 z"
         id="path3898"
         sodipodi:nodetypes="cccccccccccccccccccc"
         inkscape:connector-curvature="0" />
      <path
         sodipodi:nodetypes="ccccccccccccccscsccccssccccccccccc"
         id="path3900"
         d="m 258.34348,1146.7387 c 11.96143,18.9817 9.41667,-1.0275 9.41667,-1.0275 0.47589,5.5592 1.25925,10.5591 7.43023,5.7567 -2.8488,12.5939 6.73232,11.5959 11.8282,10.0559 l 0.35638,-7.7499 c 11.62273,13.8386 12.50897,5.3876 11.12025,-4.7611 2.22768,8.9419 4.83057,10.5852 7.95905,2.0048 0.76215,3.8601 -0.14539,10.5388 7.95904,2.0048 2.13333,9.5011 5.87944,9.1798 10.78222,1.8139 3.13225,6.8423 6.23594,9.7719 7.74987,0.3565 l 2.91517,-6.0647 c 5.89857,0.2475 11.69508,0.4216 3.67154,-9.3431 10.03637,2.7615 7.32207,0.794 3.84396,-5.345 15.15572,-5.1258 6.08204,-8.2893 3.00715,-11.9387 0.78372,-3.9572 -12.49755,-1.953 -11.46498,-3.2347 7.33559,-9.1059 -4.39612,-14.5062 -7.58428,-10.9295 1.20433,-1.0983 1.60718,-13.7618 -8.07621,-9.527 -13.95468,6.1027 -11.0832,-7.1037 -10.95459,-5.8119 l -1.99318,-7.7867 -6.51988,-3.8624 -5.07392,8.8511 c 1.25306,-10.1066 -6.47103,-10.1825 -7.74987,-0.3564 -0.7267,5.5839 3.96475,-9.1525 -3.69671,-4.0531 -12.41897,8.2659 -10.4783,-3.6078 -7.55909,2.4667 -5.67155,0.1132 -6.65801,3.3119 -5.52911,7.9039 -6.81559,-4.0114 -11.67843,-5.9118 -5.70149,3.9059 -4.69671,-1.2696 -11.09058,-4.7933 -7.59588,4.8163 -9.98659,-2.7286 -6.25954,3.5743 -2.9704,9.589 -9.29264,-8.628 -9.91893,-4.3093 -8.27865,3.3955 -7.42284,1.4314 -10.6196,3.6352 0.57236,8.4695 l -3.86232,6.5199 c -3.15068,2.5435 -9.86032,4.7572 2.44834,8.7338 -4.10896,10.4327 0.29494,12.1569 7.58423,10.9294 9.63407,7.2804 6.94627,-0.2789 5.9659,-5.7819 z"
         style="fill:#44b600;fill-opacity:1;fill-rule:evenodd;stroke:#000000;stroke-width:1px;stroke-linecap:butt;stroke-linejoin:miter;stroke-opacity:0"
         inkscape:connector-curvature="0" />
      <path
         style="fill:#a05a2c;fill-rule:evenodd;stroke:#000000;stroke-width:1px;stroke-linecap:butt;stroke-linejoin:miter;stroke-opacity:0"
         d="m 342.05909,1284.5716 8.41062,-38.8468 -2.62721,-39.9336 c -8.7565,-11.998 -21.31211,-22.0965 -46.76432,-25.7467 -8.06232,-1.4178 -14.24374,2.8071 -21.01768,5.2544 l 8.40707,-8.407 -17.86502,-11.5597 -1.57633,-11.5598 c 10.11324,19.5448 27.19216,16.4512 42.56079,18.9159 l -22.06855,-31.5265 4.72897,-4.7289 c 3.37475,12.9311 9.67569,18.5467 15.76326,24.6957 9.25726,-5.6302 18.00829,-11.7667 23.11944,-21.5431 l 3.15265,7.8816 -20.49223,18.3905 c 8.11508,11.3671 17.29986,-1.3771 24.17033,8.4071 8.01949,-10.5275 9.99103,-24.079 12.6106,-37.3064 l 7.88163,5.2544 -14.18693,34.6792 10.50884,14.1869 c 16.97753,-22.0415 30.78494,-52.5367 51.4933,-64.6293 l 7.88163,8.9325 c -22.69461,13.591 -20.91909,24.9575 -29.95019,37.3063 l 12.61061,26.7976 c 14.93348,-9.0501 36.16144,-15.9643 44.66255,-29.4248 l 3.15266,-19.9668 5.25441,-8.407 -2.10176,24.6957 c 11.03428,5.6825 22.06855,-2.5195 33.10283,-7.3561 l 1.57633,5.2544 c -21.78969,0.2552 -91.83383,58.565 -87.22335,50.9678 5.2962,-8.7271 12.17625,75.6997 14.71237,74.6128 -42.09927,-3.52 -49.11735,8.6229 -69.88732,-5.2903 z"
         id="path3902"
         sodipodi:nodetypes="ccccccccccccccccccccccccccccccscc"
         inkscape:connector-curvature="0" />
      <path
         sodipodi:nodetypes="ccccccccccccccscsccccssccccccccccc"
         id="path3904"
         d="m 441.72269,1151.9931 c 11.96143,18.9817 9.41667,-1.0275 9.41667,-1.0275 0.47589,5.5592 1.25925,10.5591 7.43023,5.7567 -2.8488,12.5939 6.73232,11.5959 11.8282,10.0559 l 0.35638,-7.7499 c 11.62273,13.8386 12.50897,5.3876 11.12025,-4.7611 2.22768,8.9419 4.83057,10.5852 7.95905,2.0048 0.76215,3.8601 -0.14539,10.5388 7.95904,2.0048 2.13333,9.5011 5.87944,9.1798 10.78222,1.8139 3.13225,6.8423 6.23594,9.7719 7.74987,0.3565 l 2.91517,-6.0647 c 5.89857,0.2475 11.69508,0.4216 3.67154,-9.3431 10.03637,2.7615 7.32207,0.794 3.84396,-5.345 15.15572,-5.1258 6.08204,-8.2893 3.00715,-11.9387 0.78372,-3.9572 -12.49755,-1.953 -11.46498,-3.2347 7.33559,-9.1059 -4.39612,-14.5062 -7.58428,-10.9295 1.20433,-1.0983 1.60718,-13.7618 -8.07621,-9.527 -13.95468,6.1027 -11.0832,-7.1037 -10.95459,-5.8119 l -1.99318,-7.7867 -6.51988,-3.8624 -5.07392,8.8511 c 1.25306,-10.1066 -6.47103,-10.1825 -7.74987,-0.3564 -0.7267,5.5839 3.96475,-9.1525 -3.69671,-4.0531 -12.41897,8.2659 -10.4783,-3.6078 -7.55909,2.4667 -5.67155,0.1132 -6.65801,3.3119 -5.52911,7.9039 -6.81559,-4.0114 -11.67843,-5.9118 -5.70149,3.9059 -4.69671,-1.2696 -11.09058,-4.7933 -7.59588,4.8163 -9.98659,-2.7286 -6.25954,3.5743 -2.9704,9.589 -9.29264,-8.628 -9.91893,-4.3093 -8.27865,3.3955 -7.42284,1.4314 -10.6196,3.6352 0.57236,8.4695 l -3.86232,6.5199 c -3.15068,2.5435 -9.86032,4.7572 2.44834,8.7338 -4.10896,10.4327 0.29494,12.1569 7.58423,10.9294 9.63407,7.2804 6.94627,-0.2789 5.9659,-5.7819 z"
         style="fill:#44b600;fill-opacity:1;fill-rule:evenodd;stroke:#000000;stroke-width:1px;stroke-linecap:butt;stroke-linejoin:miter;stroke-opacity:0"
         inkscape:connector-curvature="0" />
      <path
         style="fill:url(#linearGradient3783);fill-opacity:1;fill-rule:evenodd;stroke:#000000;stroke-width:1px;stroke-linecap:butt;stroke-linejoin:miter;stroke-opacity:0"
         d="m 248.88553,1132.5517 c 11.96143,18.9817 9.41667,-1.0275 9.41667,-1.0275 0.47589,5.5592 1.25925,10.5591 7.43023,5.7567 -2.8488,12.5939 6.73232,11.5959 11.8282,10.0559 l 0.35638,-7.7499 c 11.62273,13.8386 12.50897,5.3876 11.12025,-4.7611 2.22768,8.9419 4.83057,10.5852 7.95905,2.0048 0.76215,3.8601 -0.14539,10.5388 7.95904,2.0048 2.13333,9.5011 5.87944,9.1798 10.78222,1.8139 3.13225,6.8423 6.23594,9.7719 7.74987,0.3565 l 2.91517,-6.0647 c 5.89857,0.2475 11.69508,0.4216 3.67154,-9.3431 10.03637,2.7615 7.32207,0.794 3.84396,-5.345 15.15572,-5.1258 6.08204,-8.2893 3.00715,-11.9387 0.78372,-3.9572 -12.49755,-1.953 -11.46498,-3.2347 7.33559,-9.1059 -4.39612,-14.5062 -7.58428,-10.9295 1.20433,-1.0983 1.60718,-13.7618 -8.07621,-9.527 -13.95468,6.1027 -11.0832,-7.1037 -10.95459,-5.8119 l -1.99318,-7.7867 -6.51988,-3.8624 -5.07392,8.8511 c 1.25306,-10.1066 -6.47103,-10.1825 -7.74987,-0.3564 -0.7267,5.5839 3.96475,-9.1525 -3.69671,-4.0531 -12.41897,8.2659 -10.4783,-3.6078 -7.55909,2.4667 -5.67155,0.1132 -6.65801,3.3119 -5.52911,7.9039 -6.81559,-4.0114 -11.67843,-5.9118 -5.70149,3.9059 -4.69671,-1.2696 -11.09058,-4.7933 -7.59588,4.8163 -9.98659,-2.7286 -6.25954,3.5743 -2.9704,9.589 -9.29264,-8.628 -9.91893,-4.3093 -8.27865,3.3955 -7.42284,1.4314 -10.6196,3.6352 0.57236,8.4695 l -3.86232,6.5199 c -3.15068,2.5435 -9.86032,4.7572 2.44834,8.7338 -4.10896,10.4327 0.29494,12.1569 7.58423,10.9294 9.63407,7.2804 6.94627,-0.2789 5.9659,-5.7819 z"
         id="path3906"
         sodipodi:nodetypes="ccccccccccccccscsccccssccccccccccc"
         inkscape:connector-curvature="0" />
      <path
         sodipodi:nodetypes="ccccccccccccccscsccccssccccccccccc"
         id="path3908"
         d="m 420.25056,1136.067 c 21.65719,5.8606 6.23099,-7.1346 6.23099,-7.1346 4.11587,3.7671 8.07906,6.9143 9.36544,-0.7986 6.4354,11.1941 12.80736,3.9698 15.5128,-0.6151 l -4.98755,-5.9424 c 17.92405,2.3067 12.85131,-4.5103 4.95506,-11.0352 7.6959,5.0689 10.72378,4.5145 7.21283,-3.9167 3.17546,2.3233 7.032,7.8511 7.21285,-3.9166 8.00532,5.544 10.54336,2.77 9.16026,-5.9695 6.93912,2.9115 11.20673,2.9641 5.94249,-4.9876 l -1.96379,-6.4359 c 4.50673,-3.8137 8.88862,-7.6121 -3.62817,-9.3601 9.2535,-4.7672 5.92406,-4.3759 -0.79307,-6.5357 7.6766,-14.0371 -1.1411,-10.2178 -5.87511,-10.8194 -2.10407,-3.4418 -10.5164,7.0292 -10.62499,5.3869 -0.77221,-11.6676 -13.0604,-7.6931 -12.98282,-2.9023 0.14202,-1.6238 -8.13992,-11.2122 -12.39452,-1.5374 -6.13129,13.9421 -12.96497,2.2821 -11.99533,3.1452 l -6.74094,-4.3778 -7.41252,1.5754 2.26328,9.948 c -5.92441,-8.2834 -11.65783,-3.107 -5.94238,4.9876 3.24801,4.5999 -3.28329,-9.4185 -5.46485,-0.4774 -3.53632,14.4931 -10.15194,4.444 -3.88973,6.935 -4.09541,3.9253 -2.65422,6.9464 1.28679,9.5597 -7.7309,1.666 -12.5955,3.5622 -1.54824,6.7354 -4.315,2.2476 -11.4054,3.9868 -2.32504,8.6884 -9.19464,4.7577 -2.18339,6.8695 4.31051,9.066 -12.68043,-0.052 -10.21562,3.549 -3.78986,8.1057 -4.4907,6.0812 -5.34943,9.8678 6.15826,5.8427 l 1.57545,7.4124 c -0.59475,4.0053 -4.03088,10.1789 7.71724,4.7662 4.04456,10.4578 8.45211,8.743 12.98268,2.9023 12.01871,-1.1705 4.92081,-4.9105 0.47198,-8.2946 z"
         style="fill:url(#linearGradient3785);fill-opacity:1;fill-rule:evenodd;stroke:#000000;stroke-width:1px;stroke-linecap:butt;stroke-linejoin:miter;stroke-opacity:0"
         inkscape:connector-curvature="0" />
      <path
         sodipodi:nodetypes="ccccccccccccccscsccccssccccccccccc"
         id="path3910"
         d="m 342.38099,1083.7495 c 1.73916,22.3686 8.81076,3.4786 8.81076,3.4786 -2.16922,5.1405 -3.80579,9.9295 3.892,8.5557 -8.3887,9.8158 0.55378,13.3971 5.78026,14.4088 l 3.92637,-6.6911 c 3.83583,17.6602 8.5577,10.5956 12.05772,0.9688 -2.19539,8.9499 -0.658,11.6167 6.10818,5.4824 -1.12427,3.7706 -5.03924,9.2571 6.10809,5.4823 -2.53947,9.4008 0.92489,10.862 8.69502,6.629 -0.41666,7.5136 0.96446,11.5519 6.69108,3.9265 l 5.40524,-4.0079 c 5.10375,2.9675 10.15147,5.8224 7.602,-6.5561 7.59363,7.1198 6.10871,4.1143 5.89166,-2.9382 15.79836,2.5264 9.2439,-4.5006 8.2236,-9.1623 2.53728,-3.1362 -10.148,-7.5513 -8.63711,-8.2042 10.73351,-4.639 2.86939,-14.8836 -1.61811,-13.2044 1.57736,-0.4107 7.83434,-11.4278 -2.7068,-12.1928 -15.19082,-1.1024 -6.49663,-11.4496 -6.9847,-10.2467 l 1.86458,-7.8184 -3.96915,-6.4555 -8.61367,5.4674 c 5.81788,-8.3586 -0.9811,-12.0248 -6.69105,-3.9264 -3.24486,4.6021 7.77259,-6.2508 -1.38241,-5.3087 -14.83991,1.5272 -7.59029,-8.0746 -7.83768,-1.3396 -5.07104,-2.5425 -7.43428,-0.1719 -8.57508,4.4172 -4.1614,-6.725 -7.5786,-10.6724 -6.8647,0.7994 -3.56408,-3.3118 -7.57961,-9.4089 -8.96503,0.7222 -7.56486,-7.0676 -7.20398,0.246 -7.09621,7.1004 -4.20204,-11.9641 -6.76847,-8.4347 -8.90721,-0.853 -7.23479,-2.1922 -11.09019,-1.7317 -3.43993,7.7606 l -6.45533,3.9692 c -3.97294,0.7825 -10.94119,-0.3852 -1.90321,8.8686 -8.49677,7.3164 -5.40355,10.894 1.6181,13.2043 5.13204,10.9307 6.27607,2.9898 7.97272,-2.3361 z"
         style="fill:url(#linearGradient3787);fill-opacity:1;fill-rule:evenodd;stroke:#000000;stroke-width:1px;stroke-linecap:butt;stroke-linejoin:miter;stroke-opacity:0"
         inkscape:connector-curvature="0" />
      <g
         id="g3912"
         transform="translate(16.81414,297.92554)">
        <path
           sodipodi:nodetypes="ccccccccscccccc"
           id="path3914"
           d="m 328.91596,991.3671 c 3.80845,-3.6781 9.36355,-58.28022 7.36683,-58.28022 -2.98936,-13.66149 -4.06913,-27.32298 -13.66148,-40.98447 -11.64446,-3.42956 -22.7836,-9.3857 -35.73005,-6.3053 l -19.96679,-9.98339 15.23781,2.10176 -16.2887,-31.52651 21.01768,31.52651 c 0,0 2.62721,-18.39046 2.10177,-16.2887 -0.52545,2.10177 1.57632,15.76326 1.57632,15.76326 23.18256,3.85324 29.97684,7.70648 43.08624,11.55972 l 8.40706,43.08624 -5.77986,39.93358 c 7.28088,8.18211 6.5799,15.22443 4.18402,22.02472 l -11.55085,-2.6272 z"
           style="fill:#c87137;fill-opacity:1;fill-rule:evenodd;stroke:#000000;stroke-width:1px;stroke-linecap:butt;stroke-linejoin:miter;stroke-opacity:0"
           inkscape:connector-curvature="0" />
        <path
           sodipodi:nodetypes="cscccccccccc"
           id="path3916"
           d="m 347.31708,991.93636 c 0,0 -6.7412,-80.15321 -4.20353,-83.54526 3.98913,-5.33218 -23.16902,-44.78152 -23.64489,-44.66256 -5.99773,-3.41749 -8.33065,-12.06285 -16.81414,-10.50884 l -26.79753,3.15265 15.76325,-6.3053 c -0.92559,-8.03185 -11.39913,-11.28972 -17.33958,-16.81414 l 18.39047,7.88163 c 5.45541,-6.87709 -0.92658,-15.44525 -4.72898,-23.64489 11.75225,8.93252 13.55541,17.86503 17.33958,26.79754 22.1705,10.4069 34.59619,30.55861 45.71345,52.01875 -7.62069,36.99253 -2.52707,63.81361 -3.6781,95.63042 z"
           style="fill:#d38d5f;fill-opacity:1;fill-rule:evenodd;stroke:#000000;stroke-width:1px;stroke-linecap:butt;stroke-linejoin:miter;stroke-opacity:0"
           inkscape:connector-curvature="0" />
        <path
           sodipodi:nodetypes="cccscccscccccccccccccscscccccscccccccc"
           id="path3918"
           d="m 347.84784,991.89055 c 0.52544,-2.62721 0.52011,-32.00614 0.52011,-32.00614 l 2.62721,-12.6106 c 0,0 -5.25442,-4.20354 -3.67809,-6.3053 1.57632,-2.10177 3.15265,-19.44135 3.15265,-19.44135 -2.51143,-8.54363 -1.16536,-15.80142 4.72898,-21.54312 -3.63204,-3.5183 -1.85207,-8.8406 -1.57633,-13.66149 -2.92715,3.90286 -2.66629,-22.71702 -1.57632,-26.27209 0.61609,-2.00945 -11.03428,-33.62828 -11.03428,-33.62828 l -30.47563,-35.73005 c 6.25497,3.92978 11.41339,13.34228 18.91591,11.03428 l 3.15265,-29.95018 1.05088,31.00107 c 8.77434,-3.09725 13.46488,-11.09506 15.23781,-22.59401 0.81412,10.26162 -1.41839,19.8462 -13.13604,27.32298 4.06254,17.48203 19.78966,24.77659 22.594,40.98447 1.65278,-11.52341 13.43604,-11.32956 15.23781,-25.22121 l -3.15265,-31.00107 -5.25442,-32.05196 8.40707,23.11944 c 8.92716,1.56696 12.87975,-5.57157 16.2887,-13.66148 2.3648,3.04045 -5.14044,21.01408 -13.13605,15.76325 -3.19744,-2.0998 1.05089,29.42475 1.05089,29.42475 0,0 13.13604,-0.52544 15.23781,-2.10177 2.10177,-1.57632 14.71237,-28.8993 14.71237,-28.8993 l -5.25442,19.96679 c 16.25473,3.04898 20.1961,-10.31986 28.89931,-17.33958 -8.41842,29.00093 -36.61588,31.62982 -56.22228,45.71344 l -5.25442,13.66149 c 0,0 -7.88163,2.62721 -7.88163,5.25442 0,2.62721 2.62721,16.2887 2.62721,16.2887 l 2.10177,17.86502 -3.15265,13.66149 3.15265,21.54311 -5.25442,25.74666 c -0.97346,9.67181 -2.35276,19.1407 2.10177,31.52651 l -1.04733,17.32164 -14.7106,-3.18053 z"
           style="fill:#c87137;fill-opacity:1;fill-rule:evenodd;stroke:#000000;stroke-width:1px;stroke-linecap:butt;stroke-linejoin:miter;stroke-opacity:0"
           inkscape:connector-curvature="0" />
        <path
           sodipodi:nodetypes="cccccscccccccscccccsccccc"
           id="path3920"
           d="m 401.43759,995.61447 c -3.4931,-1.2976 -20.05735,-41.5643 -17.33959,-45.188 l 2.10178,-27.323 -3.6781,-16.8141 8.40707,-12.6106 c 0,0 14.18693,-16.2887 16.2887,-16.8142 2.10176,-0.5254 13.66149,-4.2035 13.66149,-4.2035 24.50461,13.551 38.19352,29.0106 38.88269,46.7643 l -4.72897,-26.7975 c -9.26766,-4.249 -17.88003,-10.4638 -25.74665,-18.9159 l 2.10176,-4.2036 c 11.33221,12.645 27.25772,6.9167 44.13712,-2.6272 -17.78336,5.0095 -35.79596,10.7066 -46.76433,-4.7289 1.92554,-3.2093 -19.36481,4.7669 -24.17032,6.8307 -1.90388,0.8176 -21.0901,9.6752 -21.54312,11.0343 l -10.50884,4.729 c 7.25609,-8.232 8.59827,-16.4639 8.93252,-24.6958 l 14.18693,-16.8141 c 4.39779,-5.8991 18.32904,-10.2083 32.05195,-10.5089 0,0 -18.02698,1.9062 -16.81414,-1.0509 3.15265,-7.6866 27.84842,-4.521 27.84842,-4.2035 -8.23432,-7.1667 -18.32029,-3.2234 -27.84842,-2.6272 -21.65196,11.1301 -26.15671,22.8273 -37.83181,35.2046 l -8.40708,131.8859 36.78094,3.6781 z"
           style="fill:#d38d5f;fill-opacity:1;fill-rule:evenodd;stroke:#000000;stroke-width:1px;stroke-linecap:butt;stroke-linejoin:miter;stroke-opacity:0"
           inkscape:connector-curvature="0" />
        <path
           sodipodi:nodetypes="csscccccsccccccc"
           id="path3922"
           d="m 344.16443,980.90209 c 3.15265,-1.57633 5.25441,-6.83075 4.72897,-9.45796 -0.52544,-2.62721 -3.67809,-3.15265 -2.62721,-5.25442 1.05089,-2.10176 2.62721,-16.28869 2.62721,-16.28869 l -0.52544,-12.08517 c -1.91588,-8.10325 -3.57818,-16.26989 0,-25.74665 l 1.05088,-13.13604 3.15266,-15.76326 c 0,0 2.10176,15.23781 2.10176,17.33958 0,2.10177 -3.67809,13.66149 -3.67809,13.66149 l 1.05088,16.2887 -1.57632,13.13604 1.57632,10.50884 -3.15265,10.50884 2.63431,29.36497 -7.36328,-13.07627 z"
           style="fill:#502d16;fill-rule:evenodd;stroke:#000000;stroke-width:1px;stroke-linecap:butt;stroke-linejoin:miter;stroke-opacity:0"
           inkscape:connector-curvature="0" />
        <path
           id="path3924"
           d="m 360.97856,979.85121 0,-47.28977 4.20354,-22.594 c 0,0 -4.72898,-11.55972 -4.20354,-14.18693 0.52544,-2.62721 4.72898,-25.22121 4.72898,-25.22121 l -4.72898,-6.83074 1.05089,-19.44135 7.88162,-5.77986 6.30531,-11.03428 14.18693,-11.03428 c 0,0 -22.06856,27.32297 -23.64489,35.73004 -1.57632,8.40707 4.20354,15.23782 4.20354,15.23782 l -3.15265,15.76325 2.10176,16.2887 -3.67809,22.594 3.15265,6.30531 -5.25442,13.66148 6.30531,23.64489 -8.93252,24.17032 -0.52544,-9.98339 z"
           style="fill:#784421;fill-rule:evenodd;stroke:#000000;stroke-width:1px;stroke-linecap:butt;stroke-linejoin:miter;stroke-opacity:0"
           inkscape:connector-curvature="0" />
        <path
           sodipodi:nodetypes="cccccccccc"
           id="path3926"
           d="m 380.41991,885.27166 c 5.16207,3.06667 5.70739,7.67226 6.83074,12.08516 l 6.83075,-9.45795 5.77986,-1.57632 -2.62721,-11.03428 -3.15265,1.05088 c 2.00807,4.63528 3.40081,8.65524 2.62721,10.50884 l -8.40707,-3.67809 2.62721,5.25442 c 1e-5,1.75148 -3.50296,0.70057 -10.50884,-3.15266 z"
           style="fill:#502d16;fill-rule:evenodd;stroke:#000000;stroke-width:1px;stroke-linecap:butt;stroke-linejoin:miter;stroke-opacity:0"
           inkscape:connector-curvature="0" />
        <path
           id="path3928"
           d="m 374.64005,785.96315 -2.62721,12.08517 5.25442,19.44135 8.93251,0.52544 c 0,0 2.62721,-1.05089 5.77986,-4.20354 3.15265,-3.15265 5.25442,-7.88163 5.25442,-7.88163 l -13.13605,7.35619 c 0,0 -3.67809,3.15265 -4.72897,0.52544 -1.05089,-2.62721 -4.72898,-19.44135 -4.72898,-19.44135 l 1.57633,-11.55972 -1.57633,3.15265 z"
           style="fill:#502d16;fill-rule:evenodd;stroke:#000000;stroke-width:1px;stroke-linecap:butt;stroke-linejoin:miter;stroke-opacity:0"
           inkscape:connector-curvature="0" />
        <path
           id="path3930"
           d="m 340.48101,994.51776 c 1.05088,-2.62721 1.05621,-27.8026 1.05621,-27.8026 l -4.20354,-2.62721 3.67809,-8.40707 1.05089,-9.98339 3.67809,-11.55972 -3.15265,-20.49224 -0.52544,-12.6106 c 0,0 -5.25442,-15.23781 -9.45795,-15.23781 -4.20354,0 -16.81414,-8.40707 -16.81414,-8.40707 l -14.71238,2.10176 -12.08516,0.52544 15.76326,2.62721 8.93251,-1.05088 14.18693,7.88163 9.98339,12.6106 2.10177,28.37386 -2.62721,24.17033 2.10177,31.00107 1.04556,8.88669 z"
           style="fill:#784421;fill-opacity:1;fill-rule:evenodd;stroke:#000000;stroke-width:1px;stroke-linecap:butt;stroke-linejoin:miter;stroke-opacity:0"
           sodipodi:nodetypes="ccccccccsccccccccccc"
           inkscape:connector-curvature="0" />
        <path
           sodipodi:nodetypes="ccccccccc"
           id="path3932"
           d="m 295.82378,845.86352 c 4.72897,0 27.32297,17.86503 27.32297,17.86503 4.81892,3.84851 4.78128,17.41013 14.71237,11.03428 l 5.77986,17.86502 7.88163,11.55972 -6.83075,-27.84842 c -6.98863,-5.44683 -14.12219,-10.74871 -18.39046,-18.9159 l -18.91591,-9.45796 -11.55971,-2.10177 z"
           style="fill:#784421;fill-opacity:1;fill-rule:evenodd;stroke:#000000;stroke-width:1px;stroke-linecap:butt;stroke-linejoin:miter;stroke-opacity:0"
           inkscape:connector-curvature="0" />
        <path
           sodipodi:nodetypes="ccsscccsccc"
           id="path3934"
           d="m 369.38564,990.36004 3.15265,-20.49223 c 0,0 -5.77986,-15.23782 -5.25442,-17.33958 0.52544,-2.10177 3.67809,-22.06856 3.15265,-24.17033 -0.52544,-2.10177 0.52544,-21.54312 0.52544,-21.54312 l 2.10177,-20.49223 c 7.12703,-8.37931 13.18024,-9.24182 18.91591,-7.88163 -7.03291,-1.94668 -17.28363,11.2615 -15.23781,15.23782 1.53648,2.98636 -1.32159,42.50789 2.10176,43.61167 -12.30355,4.50666 2.1026,38.15117 3.67809,57.79861 l -13.13604,-4.72898 z"
           style="fill:#784421;fill-opacity:1;fill-rule:evenodd;stroke:#000000;stroke-width:1px;stroke-linecap:butt;stroke-linejoin:miter;stroke-opacity:0"
           inkscape:connector-curvature="0" />
        <path
           id="path3936"
           d="m 380.94535,991.41092 c 0,0 -5.25442,-14.18693 -5.25442,-18.39046 0,-4.20354 3.15266,-4.72898 -0.52544,-9.45796 -3.67809,-4.72897 -3.67809,-20.49223 -3.67809,-20.49223 0,0 6.83074,15.76326 6.83074,17.86502 0,2.10177 3.15265,15.23782 3.15265,15.23782 l 5.25442,7.35618 1.05089,10.50884 -6.83075,-2.62721 z"
           style="fill:#502d16;fill-rule:evenodd;stroke:#000000;stroke-width:1px;stroke-linecap:butt;stroke-linejoin:miter;stroke-opacity:0"
           inkscape:connector-curvature="0" />
        <path
           id="path3938"
           d="m 383.57256,904.71302 24.17033,-8.93251 14.71237,-14.71238 -38.8827,23.64489 z"
           style="fill:#784421;fill-opacity:1;fill-rule:evenodd;stroke:#000000;stroke-width:1px;stroke-linecap:butt;stroke-linejoin:miter;stroke-opacity:0"
           inkscape:connector-curvature="0" />
        <path
           id="path3940"
           d="m 329.97749,864.25399 1.05088,9.9834 7.35619,-2.10177 -4.20353,-4.20353 -4.20354,-3.6781 z"
           style="fill:#502d16;fill-rule:evenodd;stroke:#000000;stroke-width:1px;stroke-linecap:butt;stroke-linejoin:miter;stroke-opacity:0"
           inkscape:connector-curvature="0" />
      </g>
      <path
         sodipodi:nodetypes="cccccccccccccccccccc"
         id="path3942"
         d="m 347.92075,1142.5394 c 2.00963,2.1888 2.99958,5.6461 8.0054,4.1078 l -0.80054,-6.3485 8.00541,1.4938 0.40027,-7.0954 c 9.44895,-4.8057 0.9989,-5.1654 -1.20082,-6.3485 l -3.20215,-2.2406 -4.00271,1.4937 c 1.13312,-3.8503 2.38634,-7.7986 -4.80324,-4.8547 3.65104,-7.3736 -1.34078,-3.2277 -4.80324,-1.1203 2.70731,-4.5814 4.58333,-7.4995 -3.20217,-5.2282 -2.32962,-4.9397 -3.50115,-1.2357 -4.80324,1.4938 -9.33235,-7.4724 -5.97877,0.4414 -5.20352,5.2282 -5.7607,-2.5138 -9.98843,-3.4543 -5.20351,4.8547 -13.14456,-4.1339 -5.75748,1.9484 -4.0027,5.2281 -1.36648,3.6464 -21.34081,4.3994 0,11.5767 -1.2787,10.7002 3.85127,6.4527 8.80594,2.6141 -3.09648,9.1667 0.63818,6.3836 6.00406,0.7469 3.94767,2.7238 6.79458,3.9071 4.40297,-2.2407 5.7157,4.8628 6.22983,1.6374 5.60379,-3.3609 z"
         style="fill:url(#linearGradient3789);fill-opacity:1;fill-rule:evenodd;stroke:#000000;stroke-width:0.73580492px;stroke-linecap:butt;stroke-linejoin:miter;stroke-opacity:0"
         inkscape:connector-curvature="0" />
      <path
         sodipodi:nodetypes="ccccccccccccccscsccccssccccccccccc"
         id="path3944"
         d="m 453.98191,1138.7689 c 1.04482,16.2179 5.26374,2.5193 5.26374,2.5193 -1.29433,3.7279 -2.2706,7.2007 2.32707,6.2021 -5.00811,7.1197 0.33436,9.7135 3.45648,10.4454 l 2.3435,-4.8528 c 2.29596,12.8034 5.11452,7.6796 7.20255,0.6985 -1.30893,6.4899 -0.38991,8.423 3.64996,3.9731 -0.67051,2.7342 -3.0075,6.7136 3.64995,3.973 -1.51431,6.8169 0.55537,7.8752 5.19549,4.8035 -0.24689,5.4479 0.57917,8.3755 3.99773,2.8448 l 3.22755,-2.9077 c 3.04938,2.1499 6.06522,4.2182 4.53905,-4.7561 4.53769,5.1598 3.64993,2.9811 3.51841,-2.1323 9.43727,1.8267 5.52029,-3.2661 4.90962,-6.6459 1.51472,-2.2747 -6.06359,-5.4718 -5.16132,-5.9456 6.41005,-3.3671 1.70994,-10.7925 -0.97005,-9.5735 0.94207,-0.2983 4.67651,-8.2883 -1.62012,-8.8395 -9.07401,-0.7944 -3.88359,-8.2996 -4.17483,-7.4272 l 1.11166,-5.6695 -2.37259,-4.6792 -5.14359,3.9669 c 3.47287,-6.0623 -0.58927,-8.7183 -3.99777,-2.8446 -1.93693,3.3378 4.64106,-4.5348 -0.82712,-3.8487 -8.86373,1.1121 -4.53597,-5.8521 -4.68197,-0.9687 -3.02967,-1.8418 -4.44065,-0.1222 -5.12082,3.2055 -2.48748,-4.8747 -4.5297,-7.7356 -4.10018,0.5818 -2.1298,-2.4001 -4.52998,-6.8194 -5.35479,0.5266 -4.52052,-5.1219 -4.30297,0.1807 -4.23678,5.1505 -2.51316,-8.6732 -4.04519,-6.1134 -5.32063,-0.6156 -4.32204,-1.587 -6.62481,-1.252 -2.05264,5.628 l -3.85483,2.88 c -2.37287,0.5687 -6.53542,-0.2756 -1.13441,6.4309 -5.07329,5.3076 -3.22469,7.9006 0.97005,9.5734 3.06839,7.9237 3.74962,2.1658 4.76163,-1.6964 z"
         style="fill:url(#linearGradient3791);fill-opacity:1;fill-rule:evenodd;stroke:#000000;stroke-width:0.65809494px;stroke-linecap:butt;stroke-linejoin:miter;stroke-opacity:0"
         inkscape:connector-curvature="0" />
    </g>
    <rect
       style="opacity:1;fill:#afc6e9;fill-opacity:0;fill-rule:nonzero;stroke:#000000;stroke-width:8.30000019;stroke-linecap:round;stroke-linejoin:round;stroke-miterlimit:4;stroke-dasharray:none;stroke-dashoffset:0;stroke-opacity:0"
       id="rect2982"
       width="233.62994"
       height="303.08749"
       x="-1.2628646"
       y="6.71031"
       rx="1.5968965"
       ry="0.041173849" />
    <rect
       style="opacity:1;fill:#afc6e9;fill-opacity:0;fill-rule:nonzero;stroke:#000000;stroke-width:8.30000019;stroke-linecap:round;stroke-linejoin:round;stroke-miterlimit:4;stroke-dasharray:none;stroke-dashoffset:0;stroke-opacity:0"
       id="rect2984"
       width="637.74664"
       height="252.57292"
       x="16.41724"
       y="192.35141"
       rx="1.5968965"
       ry="0.041173849" />
    <rect
       style="opacity:1;fill:#afc6e9;fill-opacity:0;fill-rule:nonzero;stroke:#000000;stroke-width:8.30000019;stroke-linecap:round;stroke-linejoin:round;stroke-miterlimit:4;stroke-dasharray:none;stroke-dashoffset:0;stroke-opacity:0"
       id="rect2986"
       width="530.40314"
       height="292.98459"
       x="46.72599"
       y="92.585098"
       rx="1.5968965"
       ry="0.041173849" />
  </g>
</svg>
